<svg width="90" height="130" viewBox="0 0 90 130" fill="none" xmlns="http://www.w3.org/2000/svg">
<!--suppress XmlDefaultAttributeValue -->
    <mask id="path-1-outside-1" maskUnits="userSpaceOnUse" x="0.773743" y="0.5" width="90" height="129" fill="black">
<rect fill="white" x="0.773743" y="0.5" width="90" height="129"/>
<path fill-rule="evenodd" clip-rule="evenodd" d="M76.7067 17.5708C79.4896 17.5708 81.7456 20.5895 81.7456 24.3135C81.7456 25.2213 81.6113 26.0866 81.368 26.8763H81.9372H82.7887C83.3843 26.8763 83.9472 27.2246 84.3315 27.8336C84.7169 28.4426 84.8813 29.2424 84.7833 30.0292L84.6578 31.0378C84.654 31.0755 84.6497 31.1133 84.6451 31.151L73.4087 121.43C73.4047 121.463 73.4003 121.495 73.3957 121.528L73.3075 122.236C73.1453 123.547 72.3047 124.499 71.3118 124.499H70.7801C70.7542 124.5 70.7281 124.5 70.702 124.5H19.8849C19.8588 124.5 19.8328 124.5 19.8068 124.499H19.2731C18.2801 124.499 17.4406 123.547 17.2773 122.236L5.80146 30.0292C5.70347 29.2424 5.86788 28.4426 6.25331 27.8336C6.63874 27.226 7.20165 26.8763 7.79721 26.8763H8.63138C8.63055 26.8259 8.63013 26.7754 8.63013 26.7247C8.63013 23.3402 10.4974 20.5662 12.9254 20.0811C12.8808 19.7227 12.8427 19.3613 12.8427 18.9854C12.8427 15.2615 15.0986 12.2427 17.8816 12.2427C17.8816 8.51878 20.1375 5.5 22.9205 5.5C25.7034 5.5 27.9594 8.51878 27.9594 12.2427C27.9594 12.2618 27.9572 12.2802 27.955 12.2984C27.9528 12.3163 27.9507 12.334 27.9507 12.352C28.2142 12.2937 28.4798 12.2427 28.7553 12.2427C29.2213 12.2427 29.6634 12.3549 30.0923 12.5137C30.0909 12.4726 30.0866 12.4326 30.0823 12.3927L30.0823 12.3926C30.077 12.3434 30.0717 12.2942 30.0717 12.2427C30.0717 8.51878 32.3276 5.5 35.1106 5.5C37.8935 5.5 40.1495 8.51878 40.1495 12.2427C40.1495 13.1621 40.0101 14.0377 39.7608 14.8375C39.8131 14.8323 39.8646 14.8228 39.916 14.8134C39.993 14.7992 40.0699 14.7851 40.1495 14.7851C40.9574 14.7851 41.7097 15.0634 42.387 15.515C42.381 15.4444 42.3738 15.3745 42.3666 15.3046L42.3665 15.304L42.3665 15.3039C42.3489 15.1331 42.3314 14.9628 42.3314 14.7851C42.3314 11.0611 44.5874 8.04236 47.3703 8.04236C48.2588 8.04236 49.0808 8.376 49.806 8.91653C50.6737 6.88555 52.2906 5.5 54.1644 5.5C56.9473 5.5 59.2033 8.51878 59.2033 12.2427C59.2033 12.6113 59.1641 12.9668 59.1216 13.3194C59.9056 12.6448 60.8343 12.2427 61.836 12.2427C62.9302 12.2427 63.9363 12.7221 64.7627 13.5146C65.4649 10.9213 67.3039 9.05931 69.4837 9.05931C72.2666 9.05931 74.5226 12.0781 74.5226 15.802C74.5226 16.8044 74.3494 17.7456 74.0566 18.6008C74.8285 17.9583 75.7311 17.5708 76.7067 17.5708Z"/>
</mask>
<path d="M81.368 26.8763L76.5895 25.4046L74.5963 31.8763H81.368V26.8763ZM84.3315 27.8336L80.1031 30.5021L80.1066 30.5075L84.3315 27.8336ZM84.7833 30.0292L79.8217 29.4112L79.8216 29.4116L84.7833 30.0292ZM84.6578 31.0378L79.6961 30.4202L79.6889 30.4782L79.683 30.5363L84.6578 31.0378ZM84.6451 31.151L79.6834 30.533L79.6833 30.5335L84.6451 31.151ZM73.4087 121.43L68.447 120.813L68.4469 120.814L73.4087 121.43ZM73.3957 121.528L68.447 120.813L68.44 120.861L68.434 120.91L73.3957 121.528ZM73.3075 122.236L68.3458 121.618L68.3453 121.622L73.3075 122.236ZM70.7801 124.499V119.499H70.6875L70.595 119.502L70.7801 124.499ZM19.8068 124.499L19.992 119.502L19.8994 119.499H19.8068V124.499ZM17.2773 122.236L12.3156 122.854L12.3156 122.854L17.2773 122.236ZM5.80146 30.0292L10.7632 29.4116L10.7631 29.4112L5.80146 30.0292ZM6.25331 27.8336L2.03127 25.1551L2.02837 25.1596L6.25331 27.8336ZM8.63138 26.8763V31.8763H13.7147L13.6307 26.7937L8.63138 26.8763ZM12.9254 20.0811L13.9051 24.9841L18.4613 24.0737L17.8871 19.4631L12.9254 20.0811ZM17.8816 12.2427V17.2427H22.8816V12.2427H17.8816ZM27.955 12.2984L32.9189 12.8984L32.9189 12.8981L27.955 12.2984ZM27.9507 12.352H22.9507V18.5787L29.0305 17.234L27.9507 12.352ZM30.0923 12.5137L28.3565 17.2027L35.3545 19.7933L35.0892 12.3359L30.0923 12.5137ZM30.0823 12.3927L35.0535 11.8571L35.0467 11.7944L35.0384 11.7319L30.0823 12.3927ZM30.0823 12.3926L25.111 12.9283L25.1178 12.991L25.1261 13.0535L30.0823 12.3926ZM39.7608 14.8375L34.9873 13.3496L32.7373 20.5676L40.2601 19.8125L39.7608 14.8375ZM39.916 14.8134L39.012 9.89577L39.012 9.89578L39.916 14.8134ZM42.387 15.515L39.6127 19.6748L48.2482 25.4339L47.369 15.0915L42.387 15.515ZM42.3666 15.3046L37.3921 15.8096L37.3928 15.816L42.3666 15.3046ZM42.3665 15.304L47.3409 14.799L47.319 14.5823L47.2782 14.3684L42.3665 15.304ZM42.3665 15.3039L37.3927 15.8154L37.4147 16.0288L37.4548 16.2395L42.3665 15.3039ZM49.806 8.91653L46.8177 12.9253L51.9089 16.7204L54.4039 10.8811L49.806 8.91653ZM59.1216 13.3194L54.1575 12.7215L52.6169 25.5129L62.3829 17.1094L59.1216 13.3194ZM64.7627 13.5146L61.3017 17.1232L67.3855 22.9581L69.5888 14.8215L64.7627 13.5146ZM74.0566 18.6008L69.3263 16.9808L63.5484 33.8522L77.2552 22.4438L74.0566 18.6008ZM86.7456 24.3135C86.7456 21.4785 85.8932 18.7181 84.2749 16.5525C82.6559 14.3861 80.0325 12.5708 76.7067 12.5708V22.5708C76.1638 22.5708 76.0599 22.2648 76.2646 22.5387C76.47 22.8136 76.7456 23.4245 76.7456 24.3135H86.7456ZM86.1465 28.3481C86.5389 27.0742 86.7456 25.7124 86.7456 24.3135H76.7456C76.7456 24.7303 76.6836 25.0991 76.5895 25.4046L86.1465 28.3481ZM81.9372 21.8763H81.368V31.8763H81.9372V21.8763ZM82.7887 21.8763H81.9372V31.8763H82.7887V21.8763ZM88.5599 25.165C87.4765 23.4484 85.4709 21.8763 82.7887 21.8763V31.8763C81.2977 31.8763 80.4178 31.0007 80.1031 30.5021L88.5599 25.165ZM89.745 30.6472C89.9707 28.8352 89.6252 26.8483 88.5564 25.1596L80.1066 30.5075C79.9463 30.2542 79.8741 30.0317 79.8413 29.8722C79.8079 29.7101 79.8034 29.5576 79.8217 29.4112L89.745 30.6472ZM89.6195 31.6553L89.7451 30.6467L79.8216 29.4116L79.6961 30.4202L89.6195 31.6553ZM89.6067 31.769C89.6162 31.6928 89.6248 31.6162 89.6326 31.5393L79.683 30.5363C79.6832 30.5348 79.6833 30.5337 79.6834 30.533L89.6067 31.769ZM78.3705 122.048L89.6068 31.7686L79.6833 30.5335L68.447 120.813L78.3705 122.048ZM78.3443 122.242C78.3537 122.177 78.3625 122.112 78.3706 122.047L68.4469 120.814L68.447 120.813L78.3443 122.242ZM78.2692 122.854L78.3574 122.145L68.434 120.91L68.3458 121.618L78.2692 122.854ZM71.3118 129.499C75.8512 129.499 77.942 125.498 78.2697 122.85L68.3453 121.622C68.3716 121.41 68.477 120.998 68.8722 120.551C69.2812 120.087 70.1153 119.499 71.3118 119.499V129.499ZM70.7801 129.499H71.3118V119.499H70.7801V129.499ZM70.702 129.5C70.7904 129.5 70.8782 129.498 70.9652 129.495L70.595 119.502C70.6301 119.501 70.6658 119.5 70.702 119.5V129.5ZM19.8849 129.5H70.702V119.5H19.8849V129.5ZM19.6217 129.495C19.7087 129.498 19.7965 129.5 19.8849 129.5V119.5C19.9212 119.5 19.9569 119.501 19.992 119.502L19.6217 129.495ZM19.2731 129.499H19.8068V119.499H19.2731V129.499ZM12.3156 122.854C12.6446 125.495 14.7311 129.499 19.2731 129.499V119.499C20.4702 119.499 21.3047 120.088 21.7136 120.551C22.1083 120.999 22.2129 121.409 22.239 121.618L12.3156 122.854ZM0.839744 30.6467L12.3156 122.854L22.239 121.618L10.7632 29.4116L0.839744 30.6467ZM2.02837 25.1596C0.959614 26.8483 0.614117 28.8352 0.839801 30.6471L10.7631 29.4112C10.7814 29.5576 10.7769 29.7101 10.7435 29.8722C10.7107 30.0317 10.6385 30.2542 10.4783 30.5075L2.02837 25.1596ZM7.79721 21.8763C5.10955 21.8763 3.10976 23.4551 2.03127 25.1551L10.4754 30.5121C10.1677 30.997 9.29374 31.8763 7.79721 31.8763V21.8763ZM8.63138 21.8763H7.79721V31.8763H8.63138V21.8763ZM3.63013 26.7247C3.63013 26.8029 3.63077 26.881 3.63206 26.959L13.6307 26.7937C13.6303 26.7709 13.6301 26.7479 13.6301 26.7247H3.63013ZM11.9457 15.178C6.33368 16.2994 3.63013 21.9408 3.63013 26.7247H13.6301C13.6301 25.9289 13.8535 25.3554 14.0511 25.0534C14.2593 24.7352 14.2858 24.9081 13.9051 24.9841L11.9457 15.178ZM7.84265 18.9854C7.84265 19.6836 7.91362 20.2967 7.96374 20.6991L17.8871 19.4631C17.8479 19.1487 17.8427 19.0391 17.8427 18.9854H7.84265ZM17.8816 7.24272C14.5557 7.24272 11.9324 9.05805 10.3133 11.2245C8.695 13.3901 7.84265 16.1504 7.84265 18.9854H17.8427C17.8427 18.0965 18.1183 17.4855 18.3237 17.2107C18.5284 16.9368 18.4245 17.2427 17.8816 17.2427V7.24272ZM22.9205 0.5C19.5947 0.5 16.9713 2.31533 15.3523 4.48178C13.7339 6.64733 12.8816 9.40772 12.8816 12.2427H22.8816C22.8816 11.3538 23.1572 10.7428 23.3626 10.468C23.5673 10.1941 23.4634 10.5 22.9205 10.5V0.5ZM32.9594 12.2427C32.9594 9.40772 32.1071 6.64733 30.4887 4.48178C28.8697 2.31533 26.2463 0.5 22.9205 0.5V10.5C22.3776 10.5 22.2737 10.1941 22.4784 10.468C22.6838 10.7428 22.9594 11.3538 22.9594 12.2427H32.9594ZM32.9189 12.8981C32.9191 12.8967 32.922 12.8729 32.925 12.8458C32.9283 12.8165 32.9332 12.7716 32.9381 12.7172C32.9478 12.6089 32.9594 12.4437 32.9594 12.2427H22.9594C22.9594 12.0609 22.9699 11.9144 22.978 11.8247C22.9852 11.7445 22.9936 11.6776 22.9911 11.6987L32.9189 12.8981ZM32.9507 12.352C32.9507 12.5376 32.9398 12.6863 32.9318 12.7746C32.9247 12.8537 32.9163 12.9199 32.9189 12.8984L22.9911 11.6985C22.991 11.6998 22.9881 11.723 22.9851 11.7494C22.9819 11.7778 22.9771 11.822 22.9723 11.8757C22.9627 11.9818 22.9507 12.1483 22.9507 12.352H32.9507ZM28.7553 7.24272C27.8985 7.24272 27.181 7.40139 26.8709 7.46998L29.0305 17.234C29.1263 17.2128 29.1264 17.2148 29.0889 17.2204C29.0443 17.2271 28.9247 17.2427 28.7553 17.2427V7.24272ZM31.8282 7.8247C31.0865 7.55013 30.0269 7.24272 28.7553 7.24272V17.2427C28.4158 17.2427 28.2402 17.1597 28.3565 17.2027L31.8282 7.8247ZM25.111 12.9283C25.114 12.9556 25.1111 12.9303 25.1082 12.8975C25.1048 12.859 25.0989 12.7859 25.0955 12.6915L35.0892 12.3359C35.0803 12.0867 35.0549 11.8705 35.0535 11.8571L25.111 12.9283ZM25.1261 13.0535L25.1261 13.0535L35.0384 11.7319L35.0384 11.7318L25.1261 13.0535ZM25.0717 12.2427C25.0717 12.605 25.1097 12.9163 25.111 12.9283L35.0535 11.857C35.0497 11.8213 35.0547 11.865 35.0591 11.9202C35.0642 11.9844 35.0717 12.0981 35.0717 12.2427H25.0717ZM35.1106 0.5C31.7847 0.5 29.1614 2.31533 27.5423 4.48178C25.924 6.64733 25.0717 9.40772 25.0717 12.2427H35.0717C35.0717 11.3538 35.3473 10.7428 35.5527 10.468C35.7574 10.1941 35.6535 10.5 35.1106 10.5V0.5ZM45.1495 12.2427C45.1495 9.40772 44.2971 6.64733 42.6788 4.48178C41.0598 2.31533 38.4364 0.5 35.1106 0.5V10.5C34.5677 10.5 34.4638 10.1941 34.6685 10.468C34.8739 10.7428 35.1495 11.3538 35.1495 12.2427H45.1495ZM44.5343 16.3255C44.9339 15.0434 45.1495 13.6661 45.1495 12.2427H35.1495C35.1495 12.658 35.0863 13.032 34.9873 13.3496L44.5343 16.3255ZM39.012 9.89578C38.9779 9.90204 39.0026 9.89732 39.0358 9.89192C39.0748 9.88557 39.1554 9.87318 39.2615 9.86253L40.2601 19.8125C40.5496 19.7835 40.8015 19.7344 40.8201 19.731L39.012 9.89578ZM40.1495 9.78508C39.5401 9.78508 39.0186 9.89456 39.012 9.89577L40.8201 19.731C40.8773 19.7204 40.8029 19.735 40.7088 19.7479C40.6002 19.7627 40.4025 19.7851 40.1495 19.7851V9.78508ZM45.1612 11.3552C43.8522 10.4823 42.1506 9.78508 40.1495 9.78508V19.7851C39.9705 19.7851 39.8216 19.753 39.7195 19.7186C39.6234 19.6861 39.5886 19.6587 39.6127 19.6748L45.1612 11.3552ZM37.3928 15.816C37.4007 15.8929 37.4033 15.9192 37.4049 15.9385L47.369 15.0915C47.3586 14.9697 47.3468 14.856 47.3403 14.7931L37.3928 15.816ZM37.3921 15.809L37.3921 15.8096L47.341 14.7995L47.3409 14.799L37.3921 15.809ZM37.4548 16.2395L37.4548 16.2396L47.2782 14.3684L47.2782 14.3684L37.4548 16.2395ZM37.3314 14.7851C37.3314 15.2596 37.3789 15.6805 37.3927 15.8154L47.3403 14.7925C47.338 14.7704 47.3362 14.7532 47.3346 14.7366C47.3329 14.7206 47.3317 14.7079 47.3307 14.6972C47.3296 14.6866 47.329 14.6792 47.3285 14.674C47.328 14.6688 47.3279 14.6665 47.3279 14.6666C47.3279 14.6667 47.3281 14.6695 47.3284 14.6747C47.3287 14.6798 47.3292 14.6876 47.3296 14.6976C47.3305 14.7176 47.3314 14.7474 47.3314 14.7851H37.3314ZM47.3703 3.04236C44.0445 3.04236 41.4211 4.85768 39.8021 7.02414C38.1838 9.18969 37.3314 11.9501 37.3314 14.7851H47.3314C47.3314 13.8961 47.6071 13.2852 47.8124 13.0104C48.0171 12.7364 47.9132 13.0424 47.3703 13.0424V3.04236ZM52.7942 4.90772C51.4117 3.8772 49.567 3.04236 47.3703 3.04236V13.0424C47.1775 13.0424 47.0178 13.0044 46.9112 12.9649C46.8121 12.9281 46.783 12.8994 46.8177 12.9253L52.7942 4.90772ZM54.1644 0.5C49.5957 0.5 46.5488 3.81404 45.2081 6.952L54.4039 10.8811C54.4821 10.6979 54.5632 10.5628 54.63 10.4712C54.6971 10.3791 54.7401 10.344 54.7401 10.344C54.7387 10.3451 54.6874 10.3858 54.579 10.4267C54.4658 10.4694 54.3216 10.5 54.1644 10.5V0.5ZM64.2033 12.2427C64.2033 9.40772 63.351 6.64733 61.7326 4.48178C60.1136 2.31533 57.4902 0.5 54.1644 0.5V10.5C53.6215 10.5 53.5176 10.1941 53.7223 10.468C53.9277 10.7428 54.2033 11.3538 54.2033 12.2427H64.2033ZM64.0858 13.9173C64.1288 13.5596 64.2033 12.9404 64.2033 12.2427H54.2033C54.2033 12.2512 54.2028 12.2869 54.1961 12.3666C54.1889 12.4518 54.1776 12.5548 54.1575 12.7215L64.0858 13.9173ZM61.836 7.24272C59.4307 7.24272 57.3815 8.22053 55.8604 9.52939L62.3829 17.1094C62.4091 17.0868 62.3782 17.1202 62.2777 17.161C62.1703 17.2046 62.016 17.2427 61.836 17.2427V7.24272ZM68.2236 9.90604C66.6651 8.4113 64.4717 7.24272 61.836 7.24272V17.2427C61.6378 17.2427 61.4725 17.1966 61.3658 17.1491C61.2683 17.1057 61.2536 17.0771 61.3017 17.1232L68.2236 9.90604ZM69.4837 4.05931C64.1665 4.05931 60.9623 8.41953 59.9365 12.2077L69.5888 14.8215C69.7395 14.2652 69.9622 13.9884 70.0374 13.916C70.0677 13.8868 70.0395 13.9231 69.9351 13.969C69.8231 14.0182 69.6644 14.0593 69.4837 14.0593V4.05931ZM79.5226 15.802C79.5226 12.967 78.6702 10.2066 77.0519 8.04109C75.4329 5.87463 72.8095 4.05931 69.4837 4.05931V14.0593C68.9408 14.0593 68.8368 13.7534 69.0416 14.0273C69.2469 14.3021 69.5226 14.9131 69.5226 15.802H79.5226ZM78.7869 20.2208C79.2488 18.8718 79.5226 17.3841 79.5226 15.802H69.5226C69.5226 16.2247 69.4501 16.6193 69.3263 16.9808L78.7869 20.2208ZM76.7067 12.5708C74.3419 12.5708 72.3426 13.5221 70.858 14.7578L77.2552 22.4438C77.287 22.4174 77.2584 22.4488 77.1583 22.4888C77.0508 22.5317 76.8931 22.5708 76.7067 22.5708V12.5708Z" fill="white" mask="url(#path-1-outside-1)"/>
<path d="M81.7456 24.3135C81.7456 20.5895 79.4896 17.5708 76.7067 17.5708C75.7311 17.5708 74.8285 17.9583 74.0566 18.6008C74.3495 17.7456 74.5226 16.8044 74.5226 15.802C74.5226 12.0781 72.2666 9.05931 69.4837 9.05931C67.3039 9.05931 65.4649 10.9213 64.7627 13.5146C63.9363 12.7221 62.9302 12.2427 61.836 12.2427C60.8343 12.2427 59.9056 12.6448 59.1216 13.3194C59.1641 12.9668 59.2033 12.6113 59.2033 12.2427C59.2033 8.51878 56.9473 5.5 54.1644 5.5C52.2906 5.5 50.6737 6.88555 49.806 8.91653C49.0808 8.376 48.2588 8.04236 47.3703 8.04236C44.5874 8.04236 42.3314 11.0611 42.3314 14.7851C42.3314 15.0357 42.3663 15.2717 42.387 15.515C41.7097 15.0634 40.9574 14.7851 40.1495 14.7851C40.0167 14.7851 39.8914 14.8244 39.7608 14.8375C40.0101 14.0377 40.1495 13.1621 40.1495 12.2427C40.1495 8.51878 37.8935 5.5 35.1106 5.5C32.3276 5.5 30.0717 8.51878 30.0717 12.2427C30.0717 12.336 30.0891 12.4219 30.0923 12.5137C29.6634 12.3549 29.2213 12.2427 28.7553 12.2427C28.4798 12.2427 28.2142 12.2937 27.9507 12.352C27.9507 12.3156 27.9594 12.2806 27.9594 12.2427C27.9594 8.51878 25.7034 5.5 22.9205 5.5C20.1375 5.5 17.8816 8.51878 17.8816 12.2427C15.0986 12.2427 12.8427 15.2615 12.8427 18.9854C12.8427 19.3613 12.8808 19.7227 12.9254 20.0811C10.4974 20.5662 8.63013 23.3402 8.63013 26.7247C8.63013 29.93 10.3047 32.6006 12.5443 33.2853L10.0445 37.6911L42.3358 48.3035L69.4902 41.2286L79.1086 35.2595L78.6186 30.5521C80.4489 29.5439 81.7456 27.1341 81.7456 24.3135Z" fill="#E8E462" stroke="#191919" stroke-miterlimit="10"/>
<path d="M19.8839 123.772C18.8049 123.772 17.8925 122.737 17.7139 121.312L6.47762 31.0315C6.37092 30.1762 6.54948 29.3064 6.96866 28.645C7.38785 27.9835 7.99975 27.6047 8.64758 27.6047H81.9373C82.5862 27.6047 83.197 27.9835 83.6162 28.645C84.0354 29.3064 84.2139 30.1762 84.1072 31.0315L72.872 121.311C72.6945 122.737 71.7821 123.772 70.702 123.772H19.8839Z" fill="#EFEFEF"/>
<path d="M81.9372 28.3333C82.9607 28.3333 83.7381 29.5629 83.5704 30.9135L72.3341 121.191C72.2013 122.259 71.5099 123.043 70.7009 123.043H19.8839C19.0749 123.043 18.3835 122.259 18.2507 121.191L7.01545 30.9121C6.84778 29.5615 7.62517 28.3318 8.64863 28.3318H81.9372V28.3333ZM81.9372 26.8763H8.64863C7.84075 26.8763 7.07751 27.3498 6.55489 28.1745C6.03227 28.9991 5.80907 30.0845 5.9419 31.1525L17.1782 121.43C17.3992 123.209 18.5381 124.5 19.8849 124.5H70.702C72.0488 124.5 73.1877 123.209 73.4087 121.43L84.645 31.151C84.7779 30.0845 84.5547 28.9991 84.0321 28.173C83.5094 27.3484 82.7462 26.8763 81.9372 26.8763Z" fill="#191919"/>
<path d="M26.1423 123.042H18.4816L6.69434 28.3331H17.7227L26.1423 123.042Z" fill="#A52929"/>
<path d="M41.4626 123.042H33.8019L28.751 28.3331H39.7793L41.4626 123.042Z" fill="#A52929"/>
<path d="M56.7841 123.042H49.1234L50.8066 28.3331H61.835L56.7841 123.042Z" fill="#A52929"/>
<path d="M72.1043 123.042H64.4436L72.8632 28.3331H83.8916L72.1043 123.042Z" fill="#A52929"/>
<path d="M82.7887 28.3333C83.3668 28.3333 83.8056 29.0268 83.7109 29.7902L72.235 121.997C72.1599 122.6 71.7701 123.043 71.3128 123.043H19.2741C18.8169 123.043 18.4271 122.6 18.3519 121.997L6.8761 29.7902C6.78137 29.0282 7.22016 28.3333 7.7983 28.3333H82.7887ZM82.7887 26.8763H7.79722C7.20165 26.8763 6.63874 27.226 6.25331 27.8336C5.86788 28.4426 5.70347 29.2424 5.80146 30.0292L17.2773 122.236C17.4406 123.547 18.2801 124.499 19.2731 124.499H71.3118C72.3047 124.499 73.1453 123.547 73.3075 122.236L84.7833 30.0292C84.8813 29.2424 84.7169 28.4426 84.3315 27.8336C83.9472 27.2246 83.3843 26.8763 82.7887 26.8763Z" fill="#191919"/>
</svg>
