<svg width="194" height="194" viewBox="0 0 194 194" fill="none" xmlns="http://www.w3.org/2000/svg">
<path d="M71.9402 44.3308L70.5622 45.7088L71.9402 44.3308L57.448 29.8391C57.448 29.839 57.448 29.839 57.448 29.839C53.7598 26.1504 48.8465 24.1147 43.6323 24.1147C38.4977 24.1147 33.6557 26.0884 29.9868 29.6705C29.9294 29.7243 29.8711 29.7806 29.8126 29.839C26.1742 33.4775 24.092 38.5068 24.092 43.655C24.092 48.8731 26.126 53.7877 29.8126 57.4743L44.3045 71.9662C47.9912 75.6529 52.9058 77.6864 58.1238 77.6864C63.2707 77.6864 68.2984 75.6057 71.937 71.969C71.9972 71.9092 72.0549 71.8494 72.1101 71.7902C75.6911 68.1215 77.6637 63.2798 77.6637 58.1465C77.6637 52.9319 75.628 48.0187 71.9402 44.3308ZM62.7648 58.1465C62.7648 59.387 62.286 60.5448 61.4078 61.4245C61.3755 61.4566 61.3452 61.4876 61.3214 61.5121C60.4691 62.3212 59.3045 62.7875 58.1238 62.7875C56.8748 62.7875 55.7155 62.3072 54.8395 61.4312L40.3477 46.9393C39.4714 46.0631 38.9909 44.9037 38.9909 43.655C38.9909 42.4764 39.4557 41.3139 40.2622 40.4617C40.2935 40.4316 40.3244 40.4012 40.3548 40.3705C41.2347 39.4924 42.3923 39.0136 43.6323 39.0136C44.8736 39.0136 46.0326 39.4937 46.913 40.374L61.4052 54.8662C62.2849 55.746 62.7648 56.9046 62.7648 58.1465Z" fill="black" stroke="white" stroke-width="4"/>
<path d="M61.5733 97.0145C61.5733 102.235 59.5377 107.151 55.8466 110.837L61.5733 97.0145ZM61.5733 97.0145C61.5733 91.7963 59.5379 86.8821 55.8527 83.2021C52.1676 79.511 47.2528 77.4746 42.0334 77.4746H21.5403C16.3215 77.4746 11.4071 79.5101 7.72706 83.1957C4.03629 86.8814 2 91.7955 2 97.0145C2 102.235 4.0359 107.151 7.72416 110.834C11.4124 114.523 16.3257 116.558 21.5403 116.558H42.0334C47.2475 116.558 52.1604 114.523 55.8454 110.838L61.5733 97.0145ZM18.2565 100.296L18.2551 100.295C17.3794 99.4205 16.8989 98.2628 16.8989 97.0145C16.8989 95.771 17.3778 94.6141 18.2613 93.7322L18.264 93.7295C19.1384 92.8533 20.295 92.3735 21.5403 92.3735H42.0334C43.2776 92.3735 44.4343 92.8523 45.3155 93.7353L45.3182 93.738C46.1947 94.613 46.6744 95.7694 46.6744 97.0145C46.6744 98.2623 46.1946 99.4202 45.3151 100.298L45.3141 100.3C44.4344 101.179 43.2754 101.659 42.0334 101.659H21.5403C20.299 101.659 19.1399 101.18 18.2565 100.296Z" fill="black" stroke="white" stroke-width="4"/>
<path d="M54.8403 132.606L54.8406 132.606C55.7019 131.745 56.9056 131.246 58.1246 131.246C59.3408 131.246 60.5436 131.744 61.4055 132.606L61.4057 132.606C62.2676 133.468 62.7657 134.671 62.7657 135.887C62.7657 137.107 62.2671 138.31 61.4057 139.172L46.9138 153.664C46.0373 154.54 44.8789 155.02 43.6332 155.02C42.3943 155.02 41.2421 154.546 40.3674 153.679C40.3562 153.667 40.3448 153.656 40.3334 153.645C39.4663 152.77 38.9918 151.618 38.9918 150.379C38.9918 149.133 39.4718 147.975 40.3485 147.098L54.8403 132.606ZM29.8135 136.563L29.8134 136.563C26.1271 140.25 24.0929 145.163 24.0929 150.379C24.0929 155.595 26.1271 160.508 29.8135 164.195L29.8171 164.199C33.5036 167.885 38.4167 169.919 43.6332 169.919C48.8493 169.919 53.7623 167.885 57.4488 164.199L71.9406 149.707C71.9406 149.707 71.9407 149.707 71.9407 149.707C75.6295 146.018 77.6646 141.104 77.6646 135.887C77.6646 130.74 75.5809 125.712 71.9407 122.071C68.3004 118.431 63.2713 116.347 58.1246 116.347C52.9082 116.347 47.9937 118.383 44.3054 122.071C44.3053 122.071 44.3053 122.071 44.3053 122.071L29.8135 136.563Z" fill="black" stroke="white" stroke-width="4"/>
<path d="M100.274 175.739L100.272 175.741C99.3971 176.617 98.2402 177.097 96.9954 177.097C95.7476 177.097 94.5896 176.617 93.7118 175.738L93.7108 175.737C92.8307 174.857 92.3508 173.698 92.3508 172.456V151.963C92.3508 150.721 92.8301 149.563 93.7139 148.679L93.7153 148.678C94.5893 147.802 95.7469 147.322 96.9954 147.322C98.2388 147.322 99.3961 147.801 100.278 148.684L100.281 148.686C101.157 149.561 101.636 150.717 101.636 151.963V172.456C101.636 173.7 101.158 174.857 100.274 175.739ZM96.9954 132.423C91.7747 132.423 86.8586 134.459 83.1756 138.147C79.4873 141.835 77.4519 146.748 77.4519 151.963V172.456C77.4519 177.67 79.4866 182.583 83.1715 186.268C86.858 189.96 91.7741 191.996 96.9954 191.996C102.214 191.996 107.128 189.96 110.809 186.275C114.499 182.589 116.535 177.675 116.535 172.456V151.963C116.535 146.744 114.499 141.829 110.814 138.15C107.128 134.459 102.214 132.423 96.9954 132.423Z" fill="black" stroke="white" stroke-width="4"/>
<path d="M139.145 132.607L139.145 132.607L153.637 147.098C154.517 147.978 154.997 149.137 154.997 150.379C154.997 151.619 154.518 152.777 153.64 153.657C153.608 153.689 153.578 153.72 153.554 153.745C152.702 154.554 151.537 155.02 150.356 155.02C149.107 155.02 147.948 154.54 147.072 153.664L132.58 139.172C131.704 138.295 131.223 137.136 131.223 135.887C131.223 134.708 131.689 133.545 132.496 132.692C132.523 132.666 132.554 132.636 132.587 132.603C133.467 131.725 134.625 131.246 135.865 131.246C137.106 131.246 138.264 131.726 139.145 132.607ZM164.172 164.199C164.231 164.14 164.287 164.082 164.34 164.025C167.923 160.356 169.896 155.513 169.896 150.379C169.896 145.165 167.861 140.251 164.172 136.563L164.172 136.563L149.681 122.072C149.68 122.072 149.68 122.072 149.68 122.072C145.993 118.383 141.079 116.347 135.865 116.347C130.732 116.347 125.89 118.32 122.221 121.901C122.158 121.96 122.1 122.017 122.045 122.071C118.407 125.71 116.324 130.739 116.324 135.887C116.324 141.105 118.358 146.02 122.045 149.707L136.537 164.199C140.224 167.885 145.138 169.919 150.356 169.919C155.504 169.919 160.533 167.837 164.172 164.199L164.172 164.199Z" fill="black" stroke="white" stroke-width="4"/>
<path d="M172.46 77.4746C177.68 77.4746 182.594 79.5113 186.28 83.2023C189.965 86.888 192 91.801 192 97.0145C192 102.231 189.965 107.146 186.276 110.834C182.636 114.474 177.607 116.558 172.46 116.558H151.967C146.75 116.558 141.836 114.523 138.147 110.834C134.458 107.145 132.423 102.231 132.423 97.0145C132.423 91.8012 134.458 86.8888 138.146 83.2004L172.46 77.4746ZM172.46 77.4746H151.967M172.46 77.4746H151.967M151.967 77.4746C146.746 77.4746 141.83 79.5108 138.146 83.2L151.967 77.4746ZM148.685 93.731L148.686 93.7299C149.561 92.854 150.719 92.3735 151.967 92.3735H172.46C173.679 92.3735 174.88 92.8709 175.74 93.7326L175.741 93.7339C176.621 94.614 177.101 95.773 177.101 97.0145C177.101 98.234 176.603 99.4378 175.741 100.299C174.879 101.161 173.676 101.659 172.46 101.659H151.967C150.748 101.659 149.544 101.161 148.683 100.3C148.682 100.3 148.682 100.3 148.682 100.3C148.682 100.299 148.682 100.299 148.682 100.299C147.821 99.4373 147.322 98.2332 147.322 97.0145C147.322 95.7741 147.801 94.6149 148.685 93.731Z" fill="black" stroke="white" stroke-width="4"/>
<path d="M164.172 29.8396L164.172 29.8397C167.812 33.4801 169.896 38.5088 169.896 43.6556C169.896 48.8725 167.861 53.7869 164.172 57.4753C164.172 57.4753 164.172 57.4753 164.172 57.4754L149.68 71.967C145.994 75.6537 141.081 77.6874 135.865 77.6874C130.685 77.6874 125.804 75.6821 122.126 72.0441L122.122 72.0409L122.045 71.9634C118.359 68.2767 116.324 63.3637 116.324 58.1475C116.324 52.9307 118.359 48.0176 122.045 44.3315L164.172 29.8396ZM164.172 29.8396C160.532 26.1994 155.503 24.1157 150.356 24.1157C145.14 24.1157 140.225 26.1508 136.537 29.8396C136.537 29.8396 136.537 29.8397 136.537 29.8397L122.046 44.3313L164.172 29.8396ZM132.58 54.867L132.58 54.8668L147.072 40.3746C147.072 40.3746 147.072 40.3746 147.072 40.3746C147.933 39.5132 149.137 39.0146 150.356 39.0146C151.572 39.0146 152.775 39.5126 153.637 40.3744C154.499 41.237 154.998 42.4402 154.998 43.6556C154.998 44.8748 154.499 46.0787 153.637 46.9402C153.637 46.9403 153.637 46.9403 153.637 46.9403L139.145 61.4321L139.144 61.4323C138.268 62.3087 137.11 62.7885 135.865 62.7885C134.619 62.7885 133.46 62.3087 132.584 61.432L132.547 61.3952L132.547 61.3949C131.691 60.5218 131.223 59.3772 131.223 58.1475C131.223 56.9018 131.703 55.7438 132.58 54.867Z" fill="black" stroke="white" stroke-width="4"/>
<path d="M100.278 45.3169L100.277 45.3173C99.3956 46.1984 98.2367 46.6781 96.9954 46.6781C95.7767 46.6781 94.5726 46.1794 93.711 45.3183C93.7109 45.3182 93.7109 45.3181 93.7108 45.318C93.7107 45.318 93.7107 45.3179 93.7106 45.3178C92.8493 44.456 92.3508 43.252 92.3508 42.033V21.5399C92.3508 20.3237 92.8489 19.1208 93.7108 18.2589C94.5722 17.3975 95.776 16.8989 96.9954 16.8989C98.2366 16.8989 99.3953 17.3782 100.279 18.262L100.28 18.2636C101.139 19.1199 101.636 20.3201 101.636 21.5399V42.033C101.636 43.2809 101.157 44.439 100.278 45.3169ZM96.9954 2C91.7787 2 86.8642 4.03504 83.1758 7.72387L83.1757 7.72395C79.5355 11.3642 77.4519 16.3933 77.4519 21.5399V42.033C77.4519 47.2498 79.487 52.1642 83.1761 55.8531C86.8649 59.5418 91.7793 61.5769 96.9954 61.5769C102.209 61.5769 107.122 59.5417 110.808 55.8561C114.5 52.1701 116.535 47.2542 116.535 42.033V21.5399C116.535 16.3213 114.5 11.407 110.811 7.72395C107.123 4.03529 102.21 2 96.9954 2Z" fill="black" stroke="white" stroke-width="4"/>
</svg>
