<?xml version="1.0" encoding="utf-8"?>
<!-- Generator: Adobe Illustrator 21.0.0, SVG Export Plug-In . SVG Version: 6.00 Build 0)  -->
<svg version="1.1" id="loading" xmlns="http://www.w3.org/2000/svg" x="0px" y="0px" viewBox="0 0 212 212" style="enable-background:new 0 0 212 212;" xml:space="preserve">
<style type="text/css">
	.st0{fill:none;}
	.st1{fill:#FFFFFF;}
</style>
<g>
	<path class="st0" d="M30.9,94c4.4,0,8-3.6,8-8s-3.6-8-8-8c-4.4,0-8,3.6-8,8S26.5,94,30.9,94z"/>
	<path class="st0" d="M34.9,138c-6.6,0-12,5.4-12,12s5.4,12,12,12c6.6,0,12-5.4,12-12S41.6,138,34.9,138z"/>
	<path class="st0" d="M94.9,66c15.4,0,28-12.6,28-28s-12.6-28-28-28c-15.4,0-28,12.6-28,28S79.5,66,94.9,66z"/>
	<path class="st0" d="M90.9,170c-8.8,0-16,7.2-16,16s7.2,16,16,16c8.8,0,16-7.2,16-16S99.8,170,90.9,170z"/>
	<path class="st0" d="M146.9,134c-11,0-20,9-20,20s9,20,20,20c11,0,20-9,20-20S158,134,146.9,134z"/>
	<path class="st0" d="M162.9,58c-13.2,0-24,10.8-24,24s10.8,24,24,24c13.2,0,24-10.8,24-24S176.2,58,162.9,58z"/>
	<path class="st1" d="M94.9,76c-21,0-38-17-38-38s17-38,38-38s38,17,38,38S115.9,76,94.9,76z M94.9,12c-14.3,0-26,11.7-26,26
		s11.7,26,26,26c14.3,0,26-11.7,26-26S109.3,12,94.9,12z"/>
	<path d="M94.9,74c19.9,0,36-16.2,36-36s-16.1-36-36-36c-19.9,0-36,16.2-36,36S75.1,74,94.9,74z M94.9,10c15.4,0,28,12.6,28,28
		s-12.6,28-28,28c-15.4,0-28-12.6-28-28S79.5,10,94.9,10z"/>
	<path class="st1" d="M162.9,116c-18.7,0-34-15.3-34-34s15.3-34,34-34s34,15.3,34,34S181.7,116,162.9,116z M162.9,60
		c-12.1,0-22,9.9-22,22s9.9,22,22,22s22-9.9,22-22S175.1,60,162.9,60z"/>
	<path d="M162.9,50c-17.6,0-32,14.4-32,32s14.4,32,32,32c17.6,0,32-14.4,32-32S180.6,50,162.9,50z M162.9,106c-13.2,0-24-10.8-24-24
		s10.8-24,24-24c13.2,0,24,10.8,24,24S176.2,106,162.9,106z"/>
	<path class="st1" d="M146.9,184c-16.5,0-30-13.5-30-30s13.5-30,30-30s30,13.5,30,30S163.5,184,146.9,184z M146.9,136
		c-9.9,0-18,8.1-18,18s8.1,18,18,18s18-8.1,18-18S156.9,136,146.9,136z"/>
	<path d="M146.9,126c-15.4,0-28,12.6-28,28s12.6,28,28,28c15.4,0,28-12.6,28-28S162.4,126,146.9,126z M146.9,174c-11,0-20-9-20-20
		s9-20,20-20c11,0,20,9,20,20S158,174,146.9,174z"/>
	<path class="st1" d="M90.9,212c-14.3,0-26-11.7-26-26s11.7-26,26-26s26,11.7,26,26S105.3,212,90.9,212z M90.9,172
		c-7.7,0-14,6.3-14,14s6.3,14,14,14s14-6.3,14-14S98.7,172,90.9,172z"/>
	<path d="M90.9,162c-13.2,0-24,10.8-24,24s10.8,24,24,24c13.2,0,24-10.8,24-24S104.2,162,90.9,162z M90.9,202c-8.8,0-16-7.2-16-16
		s7.2-16,16-16c8.8,0,16,7.2,16,16S99.8,202,90.9,202z"/>
	<path class="st1" d="M34.9,172c-12.1,0-22-9.9-22-22s9.9-22,22-22s22,9.9,22,22S47.1,172,34.9,172z M34.9,140c-5.5,0-10,4.5-10,10
		s4.5,10,10,10s10-4.5,10-10S40.5,140,34.9,140z"/>
	<path d="M34.9,130c-11,0-20,9-20,20s9,20,20,20c11,0,20-9,20-20S46,130,34.9,130z M34.9,162c-6.6,0-12-5.4-12-12s5.4-12,12-12
		c6.6,0,12,5.4,12,12S41.6,162,34.9,162z"/>
	<path class="st1" d="M30.9,104c-9.9,0-18-8.1-18-18s8.1-18,18-18s18,8.1,18,18S40.9,104,30.9,104z M30.9,80c-3.3,0-6,2.7-6,6
		s2.7,6,6,6s6-2.7,6-6S34.3,80,30.9,80z"/>
	<path d="M30.9,102c8.8,0,16-7.2,16-16s-7.2-16-16-16c-8.8,0-16,7.2-16,16S22.1,102,30.9,102z M30.9,78c4.4,0,8,3.6,8,8s-3.6,8-8,8
		c-4.4,0-8-3.6-8-8S26.5,78,30.9,78z"/>
</g>
</svg>
