<svg width="167" height="178" viewBox="0 0 167 178" fill="none" xmlns="http://www.w3.org/2000/svg">
<mask id="path-1-outside-1" x="0" y="0" width="167" height="178" fill="black">
<rect fill="white" width="167" height="178"/>
<path fill-rule="evenodd" clip-rule="evenodd" d="M111 38C111 57.8496 94.8515 74 75 74C55.1483 74 39 57.8496 39 38C39 18.1504 55.1483 2 75 2C94.8515 2 111 18.1504 111 38ZM103 38C103 22.5604 90.4375 10 75 10C59.5623 10 47 22.5604 47 38C47 53.4396 59.5623 66 75 66C90.4375 66 103 53.4396 103 38ZM101 75C101 57.3556 115.355 43 133 43C150.644 43 165 57.3556 165 75C165 92.6444 150.644 107 133 107C115.355 107 101 92.6444 101 75ZM109 75C109 88.2344 119.766 99 133 99C146.234 99 157 88.2344 157 75C157 61.7656 146.234 51 133 51C119.766 51 109 61.7656 109 75ZM126 108C110.562 108 98 120.56 98 136C98 151.44 110.562 164 126 164C141.438 164 154 151.44 154 136C154 120.56 141.438 108 126 108ZM126 156C114.973 156 106 147.027 106 136C106 124.973 114.973 116 126 116C137.027 116 146 124.973 146 136C146 147.027 137.027 156 126 156ZM51 152C51 138.766 61.7655 128 75 128C88.2343 128 99 138.766 99 152C99 165.234 88.2343 176 75 176C61.7655 176 51 165.234 51 152ZM59 152C59 160.822 66.1755 168 75 168C83.8243 168 91 160.822 91 152C91 143.178 83.8243 136 75 136C66.1755 136 59 143.178 59 152ZM32 116C20.9727 116 12 124.973 12 136C12 147.027 20.9727 156 32 156C43.0271 156 52 147.027 52 136C52 124.973 43.0271 116 32 116ZM32 148C25.3827 148 20 142.617 20 136C20 129.383 25.3827 124 32 124C38.6171 124 44 129.383 44 136C44 142.617 38.6171 148 32 148ZM34 101C34 109.822 26.8243 117 18 117C9.1755 117 2 109.822 2 101C2 92.1776 9.1755 85 18 85C26.8243 85 34 92.1776 34 101ZM26 101C26 96.588 22.4099 93 18 93C13.5899 93 10 96.588 10 101C10 105.412 13.5899 109 18 109C22.4099 109 26 105.412 26 101Z"/>
</mask>
<path fill-rule="evenodd" clip-rule="evenodd" d="M111 38C111 57.8496 94.8515 74 75 74C55.1483 74 39 57.8496 39 38C39 18.1504 55.1483 2 75 2C94.8515 2 111 18.1504 111 38ZM103 38C103 22.5604 90.4375 10 75 10C59.5623 10 47 22.5604 47 38C47 53.4396 59.5623 66 75 66C90.4375 66 103 53.4396 103 38ZM101 75C101 57.3556 115.355 43 133 43C150.644 43 165 57.3556 165 75C165 92.6444 150.644 107 133 107C115.355 107 101 92.6444 101 75ZM109 75C109 88.2344 119.766 99 133 99C146.234 99 157 88.2344 157 75C157 61.7656 146.234 51 133 51C119.766 51 109 61.7656 109 75ZM126 108C110.562 108 98 120.56 98 136C98 151.44 110.562 164 126 164C141.438 164 154 151.44 154 136C154 120.56 141.438 108 126 108ZM126 156C114.973 156 106 147.027 106 136C106 124.973 114.973 116 126 116C137.027 116 146 124.973 146 136C146 147.027 137.027 156 126 156ZM51 152C51 138.766 61.7655 128 75 128C88.2343 128 99 138.766 99 152C99 165.234 88.2343 176 75 176C61.7655 176 51 165.234 51 152ZM59 152C59 160.822 66.1755 168 75 168C83.8243 168 91 160.822 91 152C91 143.178 83.8243 136 75 136C66.1755 136 59 143.178 59 152ZM32 116C20.9727 116 12 124.973 12 136C12 147.027 20.9727 156 32 156C43.0271 156 52 147.027 52 136C52 124.973 43.0271 116 32 116ZM32 148C25.3827 148 20 142.617 20 136C20 129.383 25.3827 124 32 124C38.6171 124 44 129.383 44 136C44 142.617 38.6171 148 32 148ZM34 101C34 109.822 26.8243 117 18 117C9.1755 117 2 109.822 2 101C2 92.1776 9.1755 85 18 85C26.8243 85 34 92.1776 34 101ZM26 101C26 96.588 22.4099 93 18 93C13.5899 93 10 96.588 10 101C10 105.412 13.5899 109 18 109C22.4099 109 26 105.412 26 101Z" fill="black"/>
<path d="M75 76C95.9561 76 113 58.9541 113 38H109C109 56.7451 93.7469 72 75 72V76ZM37 38C37 58.9541 54.0437 76 75 76V72C56.2529 72 41 56.7451 41 38H37ZM75 0C54.0437 0 37 17.0459 37 38H41C41 19.2549 56.2529 4 75 4V0ZM113 38C113 17.0459 95.9561 0 75 0V4C93.7469 4 109 19.2549 109 38H113ZM75 12C89.333 12 101 23.6651 101 38H105C105 21.4557 91.542 8 75 8V12ZM49 38C49 23.6651 60.6668 12 75 12V8C58.4578 8 45 21.4557 45 38H49ZM75 64C60.6668 64 49 52.3349 49 38H45C45 54.5443 58.4578 68 75 68V64ZM101 38C101 52.3349 89.333 64 75 64V68C91.542 68 105 54.5443 105 38H101ZM133 41C114.251 41 99 56.251 99 75H103C103 58.4602 116.46 45 133 45V41ZM167 75C167 56.251 151.749 41 133 41V45C149.54 45 163 58.4602 163 75H167ZM133 109C151.749 109 167 93.749 167 75H163C163 91.5398 149.54 105 133 105V109ZM99 75C99 93.749 114.251 109 133 109V105C116.46 105 103 91.5398 103 75H99ZM133 97C120.87 97 111 87.1298 111 75H107C107 89.339 118.661 101 133 101V97ZM155 75C155 87.1298 145.13 97 133 97V101C147.339 101 159 89.339 159 75H155ZM133 53C145.13 53 155 62.8702 155 75H159C159 60.661 147.339 49 133 49V53ZM111 75C111 62.8702 120.87 53 133 53V49C118.661 49 107 60.661 107 75H111ZM100 136C100 121.665 111.667 110 126 110V106C109.458 106 96 119.456 96 136H100ZM126 162C111.667 162 100 150.335 100 136H96C96 152.544 109.458 166 126 166V162ZM152 136C152 150.335 140.333 162 126 162V166C142.542 166 156 152.544 156 136H152ZM126 110C140.333 110 152 121.665 152 136H156C156 119.456 142.542 106 126 106V110ZM104 136C104 148.132 113.868 158 126 158V154C116.077 154 108 145.923 108 136H104ZM126 114C113.868 114 104 123.868 104 136H108C108 126.077 116.077 118 126 118V114ZM148 136C148 123.868 138.132 114 126 114V118C135.923 118 144 126.077 144 136H148ZM126 158C138.132 158 148 148.132 148 136H144C144 145.923 135.923 154 126 154V158ZM75 126C60.6609 126 49 137.661 49 152H53C53 139.87 62.8701 130 75 130V126ZM101 152C101 137.661 89.3389 126 75 126V130C87.1297 130 97 139.87 97 152H101ZM75 178C89.3389 178 101 166.339 101 152H97C97 164.13 87.1297 174 75 174V178ZM49 152C49 166.339 60.6609 178 75 178V174C62.8701 174 53 164.13 53 152H49ZM75 166C67.2802 166 61 159.718 61 152H57C57 161.927 65.0708 170 75 170V166ZM89 152C89 159.718 82.7196 166 75 166V170C84.929 170 93 161.927 93 152H89ZM75 138C82.7196 138 89 144.282 89 152H93C93 142.073 84.929 134 75 134V138ZM61 152C61 144.282 67.2802 138 75 138V134C65.0708 134 57 142.073 57 152H61ZM14 136C14 126.077 22.0773 118 32 118V114C19.8681 114 10 123.868 10 136H14ZM32 154C22.0773 154 14 145.923 14 136H10C10 148.132 19.8681 158 32 158V154ZM50 136C50 145.923 41.9225 154 32 154V158C44.1317 158 54 148.132 54 136H50ZM32 118C41.9225 118 50 126.077 50 136H54C54 123.868 44.1317 114 32 114V118ZM18 136C18 143.722 24.2781 150 32 150V146C26.4873 146 22 141.513 22 136H18ZM32 122C24.2781 122 18 128.278 18 136H22C22 130.487 26.4873 126 32 126V122ZM46 136C46 128.278 39.7217 122 32 122V126C37.5125 126 42 130.487 42 136H46ZM32 150C39.7217 150 46 143.722 46 136H42C42 141.513 37.5125 146 32 146V150ZM18 119C27.929 119 36 110.927 36 101H32C32 108.718 25.7196 115 18 115V119ZM0 101C0 110.927 8.07076 119 18 119V115C10.2802 115 4 108.718 4 101H0ZM18 83C8.07076 83 0 91.0732 0 101H4C4 93.282 10.2802 87 18 87V83ZM36 101C36 91.0732 27.929 83 18 83V87C25.7196 87 32 93.282 32 101H36ZM18 95C21.3057 95 24 97.6929 24 101H28C28 95.4831 23.5141 91 18 91V95ZM12 101C12 97.6929 14.6942 95 18 95V91C12.4856 91 8 95.4831 8 101H12ZM18 107C14.6942 107 12 104.307 12 101H8C8 106.517 12.4856 111 18 111V107ZM24 101C24 104.307 21.3057 107 18 107V111C23.5141 111 28 106.517 28 101H24Z" fill="white" mask="url(#path-1-outside-1)"/>
</svg>
