<svg width="122" height="148" viewBox="0 0 122 148" fill="none" xmlns="http://www.w3.org/2000/svg">
<!--suppress XmlDefaultAttributeValue -->
    <mask id="path-1-outside-1" maskUnits="userSpaceOnUse" x="0.5" y="0" width="122" height="148" fill="black">
<rect fill="white" x="0.5" width="122" height="148"/>
<path fill-rule="evenodd" clip-rule="evenodd" d="M16.4209 49.2488C16.4209 61.3801 31.7849 86.2994 44.8601 107.116C25.7087 108.924 5.5 114.385 5.5 124.693C5.5 130.306 11.5748 135.042 23.068 138.389C33.2794 141.362 46.7991 143 61.1367 143C75.4779 143 88.9988 141.362 99.2093 138.389C110.7 135.042 116.774 130.306 116.774 124.693C116.774 114.216 96.1464 108.776 76.612 107.044C90.1344 85.755 104.912 62.1237 104.912 49.2488C104.912 24.8498 85.0651 5 60.6697 5C36.271 5 16.4209 24.8498 16.4209 49.2488ZM45.2001 47.6929C45.2001 39.1615 52.1397 32.2204 60.6697 32.2204C69.1964 32.2204 76.1332 39.1612 76.1332 47.6929C76.1332 56.2196 69.1964 63.1565 60.6697 63.1565C52.1397 63.1565 45.2001 56.2196 45.2001 47.6929Z"/>
</mask>
<path d="M44.8601 107.116L45.3301 112.094L53.4119 111.331L49.0941 104.456L44.8601 107.116ZM23.068 138.389L21.67 143.19L21.6701 143.19L23.068 138.389ZM99.2093 138.389L100.607 143.19L100.607 143.19L99.2093 138.389ZM76.612 107.044L72.3914 104.363L67.986 111.299L76.1704 112.025L76.612 107.044ZM49.0941 104.456C42.5448 94.0295 35.5324 82.7467 30.1568 72.587C27.4702 67.5095 25.2466 62.8125 23.705 58.719C22.1297 54.5357 21.4209 51.3763 21.4209 49.2488H11.4209C11.4209 53.1869 12.6326 57.6917 14.3466 62.2432C16.0944 66.8845 18.529 71.993 21.3178 77.2638C26.893 87.8007 34.1002 99.3858 40.626 109.775L49.0941 104.456ZM10.5 124.693C10.5 123.939 10.8167 122.915 12.3159 121.555C13.8728 120.143 16.3668 118.709 19.8017 117.38C26.6416 114.735 35.9708 112.978 45.3301 112.094L44.39 102.138C34.5979 103.063 24.2471 104.939 16.1948 108.053C12.1836 109.605 8.42848 111.581 5.5978 114.148C2.70935 116.768 0.5 120.292 0.5 124.693H10.5ZM24.466 133.588C19.0174 132.002 15.3007 130.203 13.0483 128.447C10.8478 126.732 10.5 125.456 10.5 124.693H0.5C0.5 129.542 3.18958 133.441 6.89979 136.334C10.558 139.186 15.6254 141.429 21.67 143.19L24.466 133.588ZM61.1367 138C47.1193 138 34.0966 136.393 24.4659 133.588L21.6701 143.19C32.4622 146.332 46.479 148 61.1367 148V138ZM97.8113 133.588C88.1817 136.393 75.1578 138 61.1367 138V148C75.7979 148 89.8159 146.332 100.607 143.19L97.8113 133.588ZM111.774 124.693C111.774 125.457 111.426 126.733 109.226 128.448C106.974 130.204 103.258 132.002 97.8111 133.588L100.607 143.19C106.651 141.429 111.717 139.186 115.375 136.334C119.085 133.441 121.774 129.542 121.774 124.693H111.774ZM76.1704 112.025C85.7221 112.871 95.2517 114.608 102.243 117.263C105.754 118.597 108.308 120.045 109.905 121.479C111.442 122.859 111.774 123.908 111.774 124.693H121.774C121.774 120.239 119.527 116.679 116.586 114.038C113.705 111.451 109.881 109.467 105.794 107.915C97.5875 104.798 87.0363 102.949 77.0536 102.064L76.1704 112.025ZM99.9125 49.2488C99.9125 51.6148 99.2102 54.8673 97.6972 58.9972C96.2072 63.0645 94.0489 67.6715 91.4135 72.653C86.1367 82.6272 79.1697 93.6918 72.3914 104.363L80.8326 109.725C87.5766 99.1073 94.7599 87.7117 100.253 77.3293C103.002 72.1324 105.384 67.087 107.087 62.4371C108.768 57.8498 109.912 53.3202 109.912 49.2488H99.9125ZM60.6697 10C82.3031 10 99.9125 27.6106 99.9125 49.2488H109.912C109.912 22.089 87.8271 0 60.6697 0V10ZM21.4209 49.2488C21.4209 27.6112 39.0324 10 60.6697 10V0C33.5096 0 11.4209 22.0883 11.4209 49.2488H21.4209ZM60.6697 27.2204C49.3774 27.2204 40.2001 36.401 40.2001 47.6929H50.2001C50.2001 41.922 54.9021 37.2204 60.6697 37.2204V27.2204ZM81.1332 47.6929C81.1332 36.4025 71.9605 27.2204 60.6697 27.2204V37.2204C66.4322 37.2204 71.1332 41.9199 71.1332 47.6929H81.1332ZM60.6697 68.1565C71.9578 68.1565 81.1332 58.981 81.1332 47.6929H71.1332C71.1332 53.4582 66.4349 58.1565 60.6697 58.1565V68.1565ZM40.2001 47.6929C40.2001 58.9829 49.3801 68.1565 60.6697 68.1565V58.1565C54.8993 58.1565 50.2001 53.4564 50.2001 47.6929H40.2001Z" fill="white" mask="url(#path-1-outside-1)"/>
<path d="M71.4329 110.648C95.5891 112.038 113.799 118.246 113.799 125.692C113.799 134.156 90.2284 141.025 61.1367 141.025C32.054 141.025 8.47493 134.156 8.47493 125.692C8.47493 118.333 26.2649 112.189 49.9957 110.696C54.3123 117.568 58.138 123.693 60.6697 128.257C63.2876 123.533 67.1312 117.425 71.4329 110.648Z" fill="#BDC3C7"/>
<path d="M60.6697 8.97485C83.4604 8.97485 101.938 27.452 101.938 50.2487C101.938 63.1152 84.5492 89.9905 71.4329 110.648C67.1312 117.425 63.2876 123.533 60.6697 128.257C58.138 123.693 54.3123 117.568 49.9957 110.696C36.9478 89.934 19.3958 62.3328 19.3958 50.2487C19.3958 27.452 37.8729 8.97485 60.6697 8.97485ZM79.1081 48.6928C79.1081 38.5306 70.826 30.2454 60.6697 30.2454C50.5074 30.2454 42.2252 38.5306 42.2252 48.6928C42.2252 58.8492 50.5074 67.1313 60.6697 67.1313C70.826 67.1313 79.1081 58.8492 79.1081 48.6928Z" fill="#BDC3C7"/>
<path d="M61.1367 144C46.7991 144 33.2794 142.362 23.068 139.389C11.5748 136.042 5.5 131.306 5.5 125.693C5.5 114.49 29.3689 109.013 49.8089 107.727C51.4448 107.621 52.8617 108.869 52.9646 110.509C53.0679 112.149 51.8223 113.562 50.1822 113.665C38.8657 114.377 28.621 116.2 21.3348 118.796C14.0389 121.397 11.4498 124.137 11.4498 125.693C11.4498 127.221 14.2471 130.623 24.7316 133.676C34.4173 136.497 47.3462 138.05 61.1367 138.05C74.9305 138.05 87.8606 136.497 97.5451 133.676C108.027 130.623 110.824 127.222 110.824 125.693C110.824 121.687 96.7357 115.083 71.2621 113.618C69.6218 113.524 68.3684 112.118 68.463 110.477C68.5573 108.837 69.9594 107.579 71.6039 107.678C92.4411 108.877 116.774 114.313 116.774 125.693C116.774 131.306 110.7 136.042 99.2093 139.389C88.9988 142.362 75.4779 144 61.1367 144Z" fill="black"/>
<path d="M60.6697 131.231C59.5886 131.231 58.5929 130.645 58.0681 129.7C55.6096 125.269 51.8166 119.188 47.4762 112.278L47.4765 112.279L46.4698 110.677C33.0824 89.3831 16.4209 62.882 16.4209 50.2488C16.4209 25.8498 36.271 6 60.6697 6C85.0651 6 104.912 25.8498 104.912 50.2488C104.912 63.5121 89.2294 88.1904 75.3922 109.964L73.9443 112.243C69.6384 119.026 65.8633 125.022 63.2718 129.698C62.7476 130.644 61.7519 131.231 60.6706 131.231C60.6703 131.231 60.67 131.231 60.6697 131.231ZM60.6697 11.9498C39.5514 11.9498 22.3707 29.1305 22.3707 50.2488C22.3707 61.1673 39.2108 87.9527 51.5069 107.511L52.5143 109.113C52.5143 109.113 52.5145 109.114 52.5145 109.114C55.6867 114.163 58.4361 118.561 60.67 122.311C63.0038 118.401 65.8281 113.926 68.9209 109.054L70.3702 106.773C82.4371 87.7853 98.9627 61.7813 98.9627 50.2488C98.9627 29.1305 81.7844 11.9498 60.6697 11.9498Z" fill="black"/>
<path d="M60.6697 70.1063C48.859 70.1063 39.2503 60.5003 39.2503 48.6929C39.2503 36.8805 48.859 27.2706 60.6697 27.2706C72.4771 27.2706 82.0831 36.8805 82.0831 48.6929C82.0831 60.5003 72.4771 70.1063 60.6697 70.1063ZM60.6697 33.2204C52.1397 33.2204 45.2002 40.1615 45.2002 48.6929C45.2002 57.2196 52.1397 64.1565 60.6697 64.1565C69.1963 64.1565 76.1332 57.2196 76.1332 48.6929C76.1332 40.1612 69.1963 33.2204 60.6697 33.2204Z" fill="black"/>
</svg>
