<svg width="143" height="139" viewBox="0 0 143 139" fill="none" xmlns="http://www.w3.org/2000/svg">
<path d="M73.5548 138.454C73.0471 138.449 72.5415 138.389 72.0464 138.277H71.758H71.3587H70.2052H68.9408H68.4528C66.3897 138.277 62.5965 138.277 61.6204 134.972C61.3473 133.748 61.1987 132.499 61.1768 131.245C58.2183 130.812 55.3582 129.866 52.7251 128.45C51.6145 127.779 50.5476 127.038 49.5307 126.232C46.5668 128.514 43.0701 130.002 39.3709 130.557C37.722 130.757 36.0629 130.861 34.402 130.868C29.2777 130.868 27.7471 129.759 26.9929 128.65C26.6119 128.125 26.3643 127.516 26.2716 126.874C26.1788 126.233 26.2436 125.578 26.4605 124.967C26.8598 123.792 28.3238 118.845 29.2112 115.273C22.9556 115.584 12.6183 116.094 11.6423 116.094C10.5116 116.069 9.40437 115.767 8.41797 115.214C7.43157 114.661 6.59628 113.874 5.98564 112.922C5.45445 112.147 5.1307 111.248 5.04527 110.312C4.95984 109.377 5.11557 108.434 5.49761 107.576C6.25183 105.912 14.6148 92.0478 18.2972 88.321L19.1179 87.5003C17.1468 86.9009 15.1283 86.4705 13.0842 86.2137C10.8659 85.9696 3.58988 84.8827 1.41596 81.3778C1.07905 80.845 0.867995 80.2425 0.798807 79.616C0.72962 78.9894 0.804125 78.3554 1.01666 77.762C3.84888 72.6561 7.51529 68.0599 11.8641 64.1638C13.8606 62.5667 15.7461 61.0582 17.2324 59.9047C14.106 55.9346 11.4348 51.6263 9.26871 47.0608C5.74163 39.5186 4.3441 33.1965 5.5198 30.1352C5.73036 29.5841 6.04874 29.0805 6.45629 28.6539C6.86385 28.2273 7.35241 27.8862 7.89337 27.6507C9.1115 27.2689 10.3934 27.1332 11.6645 27.2514C13.8828 27.2514 17.5873 27.2514 21.2253 27.4511C24.464 27.4511 27.7027 27.6507 29.9654 27.6507H34.7125C34.3798 24.3011 33.8696 19.2434 33.3816 15.9603C33.1597 14.341 32.9157 12.8991 32.7161 11.679C31.9618 6.95407 31.4073 3.5379 35.2449 2.80587C35.5767 2.77078 35.9113 2.77078 36.2431 2.80587C43.0911 3.33819 49.8207 4.89347 56.2078 7.41991C60.699 8.92653 64.9056 11.1761 68.6524 14.0748C74.492 9.94763 80.8362 6.58544 87.5301 4.07029C92.1322 2.13449 97.0156 0.951088 101.993 0.56539C103.001 0.482647 104.014 0.659382 104.934 1.07876C105.854 1.49813 106.652 2.14618 107.251 2.96115C108.116 4.4474 108.116 4.4474 106.031 15.3614C105.41 18.5557 104.522 23.192 103.99 26.4529C107.157 26.0718 110.283 25.4036 113.329 24.4564C116.412 23.4582 120.538 21.6614 123.866 20.2195C128.613 18.1786 129.766 17.6906 130.986 17.6906H131.364C132.014 17.754 132.639 17.9724 133.187 18.3275C133.735 18.6826 134.19 19.1641 134.514 19.7314C136.333 22.7927 135.933 31.5549 132.118 40.3394L130.654 43.6668L131.408 43.3562C133.088 42.5375 134.911 42.0552 136.776 41.9365C137.827 41.8624 138.873 42.1317 139.757 42.7039C140.641 43.276 141.316 44.12 141.679 45.1087C143.089 54.519 140.852 64.1129 135.423 71.9279C133.347 74.7809 131.016 77.439 128.458 79.8693L129.522 80.1134C131.608 80.557 133.382 80.8232 134.824 81.0672C138.662 81.6883 142.987 82.3982 142.766 86.7682C141.98 90.7821 140.357 94.5853 138.002 97.9297C135.648 101.274 132.615 104.085 129.101 106.178L123.355 109.439L121.514 110.526C121.789 115.939 121.7 121.363 121.248 126.764C120.361 129.759 116.479 131.866 111.843 131.866C110.795 131.877 109.748 131.796 108.715 131.622C103.781 130.714 99.0063 129.092 94.5399 126.808C94.1406 126.542 93.7413 126.232 93.3864 125.965C90.7022 127.363 86.7315 129.404 85.223 129.981L84.003 130.402C84.003 134.683 83.759 135.038 83.4262 135.704C82.9309 136.537 82.2155 137.219 81.3585 137.673C80.5016 138.126 79.5362 138.336 78.5682 138.277C78.0734 138.277 77.5809 138.209 77.1041 138.077H76.7048C76.1926 138.079 75.6812 138.116 75.1742 138.188C74.6419 138.318 74.1006 138.407 73.5548 138.454V138.454Z" fill="white"/>
<path d="M22.645 60.4814C18.6047 55.9877 15.2418 50.9284 12.6627 45.4635C8.4479 36.4795 8.40354 31.4883 9.33522 31.1334C10.2669 30.7784 23.7985 31.3774 29.9653 31.4218C36.1322 31.4661 38.8385 31.4218 38.8385 31.0668C38.8385 30.7119 37.929 20.8405 37.1526 15.4279C36.3762 10.0152 35.5998 6.55469 36.0656 6.42159C42.538 6.89843 48.8943 8.39578 54.8989 10.8582C65.9904 14.9177 68.2087 18.8662 68.2087 18.8662C74.4704 14.1026 81.3702 10.2421 88.7057 7.39764C99.4423 3.62655 103.701 4.15894 104.056 4.78006C104.411 5.40118 98.9986 30.0464 99.9303 30.3348C104.897 30.2704 109.826 29.4552 114.549 27.9169C120.605 25.9426 130.077 21.262 131.075 21.262C132.073 21.262 132.894 29.0704 128.724 38.6978C124.553 48.3251 123.555 49.6118 123.932 49.7892C127.007 49.0149 130.018 48.0064 132.938 46.7723C136.066 45.4635 137.708 45.2639 138.085 46.373C139.075 54.5856 137.049 62.8782 132.384 69.7095C125.285 79.1594 122.158 79.6474 121.869 80.0246C121.581 80.4017 121.869 82.4203 128.724 83.84C135.578 85.2597 139.039 85.1488 138.972 86.6129C138.209 89.987 136.775 93.1732 134.755 95.9818C132.735 98.7904 130.171 101.164 127.215 102.962C118.142 108.374 117.588 108.374 117.788 109.106C117.987 109.838 118.098 124.634 117.788 125.766C117.477 126.897 114.394 128.827 109.513 127.984C105.096 127.159 100.812 125.733 96.7803 123.747C95.817 123.095 94.9183 122.352 94.0962 121.529C94.0962 121.529 85.9329 125.832 84.0029 126.587C82.8454 127.04 81.6396 127.36 80.4093 127.54C80.4093 127.54 80.4093 133.796 80.1875 134.195C79.9241 134.417 79.6125 134.575 79.2775 134.656C78.9426 134.737 78.5933 134.739 78.2576 134.661C77.0969 134.473 75.9134 134.473 74.7527 134.661C74.0238 134.838 73.2632 134.838 72.5344 134.661C71.3679 134.569 70.1959 134.569 69.0295 134.661C68.0091 134.661 65.5246 134.661 65.3471 134.04C65.1696 133.419 64.8369 128.051 64.8369 128.051C61.3503 127.784 57.9433 126.874 54.788 125.366C52.821 124.309 51.0562 122.912 49.575 121.24C46.6297 124.131 42.8935 126.084 38.8385 126.853C32.96 127.54 29.8101 126.853 29.9653 126.365C30.1206 125.877 34.6459 111.214 33.5368 111.325C32.4276 111.436 13.195 112.212 11.6201 112.234C10.0451 112.256 8.29262 110.415 8.91374 109.04C9.53487 107.664 17.7869 94.0442 20.9369 90.8942C24.0869 87.7442 25.7728 85.7921 25.7728 85.7921C21.8473 84.1361 17.724 82.9953 13.5056 82.3981C7.42749 81.7105 4.27751 79.714 4.63244 78.9598C7.24497 74.5426 10.5051 70.5421 14.3042 67.0919C18.6964 63.4761 22.645 60.4814 22.645 60.4814Z" fill="#1D1D1B"/>
<path d="M13.7719 34.7714C14.4373 34.106 43.6966 34.9045 43.7854 34.35C43.8741 33.7954 39.6371 9.61601 40.4801 9.61601C47.4081 11.6434 54.1006 14.4022 60.4447 17.8459C66.2788 21.5726 66.5672 22.9479 68.12 22.8592C69.6728 22.7705 76.9932 15.7829 86.8202 12.0339C96.6473 8.28503 99.9525 8.0632 99.9525 8.44031C99.9525 8.81742 96.7804 24.6338 96.1592 27.5842C95.5381 30.5345 95.1832 33.6623 95.8487 33.8398C102.025 34.0174 108.194 33.2697 114.15 31.6215C122.89 29.1592 129.123 25.6986 129.212 26.3419C127.143 33.2826 124.455 40.0237 121.182 46.484C118.542 50.5657 117.455 54.0706 118.009 54.3368C118.564 54.603 121.692 53.6713 127.659 51.8745C133.626 50.0777 134.314 49.7893 134.314 50.0777C134.418 56.0878 132.718 61.9912 129.434 67.0254C125.872 71.8485 121.729 76.2145 117.1 80.0246C117.413 81.2349 117.968 82.3696 118.73 83.3606C119.493 84.3516 120.447 85.1786 121.537 85.7922C124.132 86.9679 134.181 88.4541 134.092 89.0087C131.724 94.6122 127.587 99.2868 122.313 102.318C114.527 106.334 113.595 106.755 113.44 107.443C113.284 108.13 113.839 123.548 113.196 123.658C109.441 123.341 105.726 122.657 102.104 121.618C98.9543 120.531 97.6677 119.532 97.6677 119.266C100.173 116.209 102.282 112.847 103.945 109.262C104.836 107.133 105.441 104.895 105.742 102.607C105.742 102.607 115.88 103.073 116.834 95.9519C117.788 88.8312 112.641 87.5003 111.177 87.2562C110.209 87.0321 109.22 86.9131 108.227 86.9013C108.227 86.9013 110.8 64.0307 103.058 51.4086C95.3163 38.7866 87.0642 32.1095 70.3161 32.7972C53.568 33.4848 44.6061 42.2915 40.5023 59.4167C36.3984 76.5419 37.4854 86.3246 37.4854 86.3246C37.4854 86.3246 29.2999 86.6573 29.5661 96.7949C29.8323 106.932 40.5023 104.914 40.5023 104.914C40.4383 107.973 41.2795 110.983 42.9202 113.565C45.6265 117.691 46.8244 119.244 46.8244 119.244C46.8244 119.244 36.0213 123.37 35.9326 122.749C35.8439 122.128 38.7055 112.678 38.3284 111.657C37.9512 110.637 36.1101 108.641 35.4446 108.641C34.7791 108.641 13.905 109.55 13.7053 108.641C13.5057 107.731 18.3415 100.322 23.1774 94.1995C28.0133 88.077 30.3869 85.77 30.2981 84.927C30.2094 84.0841 26.9485 80.2464 19.85 79.2038C12.7514 78.1612 9.88985 78.3831 10.0673 78.006C13.5434 73.5381 17.5259 69.4886 21.9352 65.9385C24.1304 64.7556 26.0388 63.1047 27.5253 61.1026C23.7471 56.8806 20.4373 52.2618 17.6539 47.327C13.7275 39.9401 13.5057 35.0598 13.7719 34.7714Z" fill="#BDC3C7"/>
<path d="M46.3143 25.144C45.5221 21.8382 44.9148 18.4907 44.4953 15.1173C47.2942 15.8729 50.0132 16.8982 52.6143 18.1786C52.6143 18.5557 52.6143 20.1085 52.3481 20.1085C50.7739 19.679 49.1733 19.353 47.5565 19.1324C47.5565 19.3986 48.3329 23.4581 48.2442 23.7243C48.1555 23.9905 46.4918 25.388 46.3143 25.144Z" fill="#1D1D1B"/>
<path d="M80.6312 19.5983C82.8367 17.7237 85.2657 16.1292 87.8628 14.8511C90.5247 13.9194 90.0811 13.4536 90.5247 13.9194C90.9684 14.3853 91.5452 15.8494 91.279 16.1377C88.985 16.9229 86.7592 17.8948 84.6241 19.0437C82.5167 20.4412 82.4058 21.262 81.8734 21.0845C81.341 20.9071 80.8974 19.9754 80.6312 19.5983Z" fill="#1D1D1B"/>
<path d="M37.3302 90.406C38.1728 93.9378 38.6926 97.5388 38.883 101.165C38.6168 101.165 33.6256 100.566 33.6035 96.9722C33.6627 95.6613 34.0313 94.3831 34.679 93.2419C35.3267 92.1008 36.2352 91.129 37.3302 90.406Z" fill="#BDC3C7"/>
<path d="M108.338 90.495C108.626 90.2066 113.595 90.495 112.774 94.7985C111.954 99.102 106.585 100.566 106.474 99.9893C106.862 98.2417 107.343 96.5163 107.916 94.8207C108.537 92.2253 107.783 91.0496 108.338 90.495Z" fill="#BDC3C7"/>
<path d="M69.9833 36.7235C78.8565 36.7235 89.6152 37.2115 98.0003 51.8744C106.385 66.5374 105.476 78.1612 103.191 91.2713C100.906 104.381 97.2683 112.234 95.0056 114.719C94.1378 115.754 93.1883 116.719 92.1662 117.602C90.4623 116.251 88.6353 115.063 86.7092 114.053C86.2434 114.231 85.6001 114.896 85.7997 115.251C85.9994 115.606 90.2363 118.623 90.0588 118.911C89.8814 119.2 87.4856 120.863 87.2194 120.597C85.4855 119.092 83.6632 117.692 81.7624 116.405C81.3853 116.405 80.2984 117.248 80.4758 117.602C80.6533 117.957 85.7554 121.24 85.2008 121.618C84.6462 121.995 81.7181 123.303 81.3409 123.037C80.9638 122.771 77.0596 118.734 76.7047 118.756C76.3498 118.778 75.3294 119.311 75.6178 119.776C75.9061 120.242 78.7899 123.703 78.7899 123.703C72.7872 124.421 66.7162 124.346 60.733 123.481C52.5253 121.972 46.7356 112.9 44.0958 103.25C41.4561 93.6005 41.456 73.0591 44.3176 61.7015C47.1792 50.3438 52.1926 36.8566 69.9833 36.7235Z" fill="#BDC3C7"/>
<path d="M67.8316 128.006C68.0978 127.74 70.6045 128.162 73.0889 128.006C75.5734 127.851 76.7713 127.895 76.7713 128.162C76.7713 128.428 77.0819 132.221 76.7713 132.31C75.6617 132.644 74.4841 132.682 73.3551 132.421C72.3262 131.9 71.1796 131.655 70.0277 131.711C69.1182 131.911 68.5636 132.554 68.2752 132.177C67.9136 130.818 67.764 129.411 67.8316 128.006V128.006Z" fill="#BDC3C7"/>
<path d="M51.6603 50.2332C52.3923 49.967 58.3152 46.3956 72.5344 46.4843C86.7537 46.573 94.8504 50.3663 95.0501 51.4754C95.2497 52.5846 95.0501 56.9103 94.2737 56.9103C93.4973 56.9103 89.0829 53.8047 72.7784 53.9821C56.474 54.1596 51.7934 58.0416 50.8839 57.4205C49.9744 56.7993 48.9983 51.1649 51.6603 50.2332Z" fill="#1D1D1B"/>
<path d="M52.592 51.7635C53.1466 50.61 59.8458 48.0146 73.2887 48.6579C86.7316 49.3012 93.0315 51.5417 93.0315 52.2737C93.0315 53.0057 93.4973 54.2036 93.0315 54.2036C86.4177 52.3065 79.5424 51.4826 72.6676 51.7635C66.0289 52.0177 59.4346 52.9618 52.9913 54.5807C52.2371 54.3589 52.4146 52.0519 52.592 51.7635Z" fill="#BDC3C7"/>
<path d="M78.7233 60.6368C84.9124 58.1079 96.4697 59.9491 96.0482 72.5712C95.6267 85.1933 80.2318 86.9679 75.0188 79.9138C69.8058 72.8596 72.2903 63.2322 78.7233 60.6368Z" fill="#1D1D1B"/>
<path d="M79.6995 62.6111C84.7794 60.5259 94.2071 62.0343 93.9187 72.4159C93.6304 82.7975 80.9195 84.2173 76.6382 78.3831C72.3569 72.549 74.4199 64.7628 79.6995 62.6111Z" fill="#BDC3C7"/>
<path d="M53.4349 60.3038C59.1359 57.9746 69.7171 59.6605 69.3844 71.3952C69.0517 83.13 54.8102 84.705 49.9965 78.161C45.1828 71.6171 47.512 62.7217 53.4349 60.3038Z" fill="#1D1D1B"/>
<path d="M54.3444 62.1453C59.025 60.2375 67.6542 61.6129 67.4545 71.1737C67.2549 80.7346 55.4757 82.0655 51.5272 76.7416C47.5786 71.4177 49.5751 64.1417 54.3444 62.1453Z" fill="#BDC3C7"/>
<path d="M57.3612 69.1772C57.7579 68.9923 58.198 68.9207 58.6329 68.9702C59.0677 69.0198 59.4804 69.1886 59.8253 69.458C60.1702 69.7274 60.4339 70.087 60.5873 70.4969C60.7406 70.9068 60.7776 71.3512 60.6942 71.7808C60.6108 72.2105 60.4102 72.6087 60.1147 72.9315C59.8191 73.2543 59.44 73.4891 59.0194 73.6099C58.5987 73.7307 58.1528 73.7328 57.731 73.6161C57.3092 73.4994 56.9279 73.2683 56.6292 72.9483C56.3948 72.6654 56.226 72.334 56.1351 71.9781C56.0441 71.6221 56.0333 71.2503 56.1033 70.8897C56.1733 70.529 56.3224 70.1883 56.54 69.8922C56.7575 69.5961 57.038 69.3519 57.3612 69.1772Z" fill="#1D1D1B"/>
<path d="M83.4485 70.1532C83.8451 69.9683 84.2852 69.8966 84.7201 69.9462C85.1549 69.9957 85.5676 70.1645 85.9125 70.434C86.2574 70.7034 86.5211 71.0629 86.6745 71.4729C86.8278 71.8828 86.8648 72.3271 86.7814 72.7568C86.698 73.1864 86.4975 73.5847 86.2019 73.9075C85.9063 74.2302 85.5273 74.465 85.1066 74.5858C84.6859 74.7066 84.24 74.7088 83.8182 74.5921C83.3964 74.4753 83.0151 74.2442 82.7164 73.9243C82.482 73.6414 82.3132 73.31 82.2223 72.954C82.1313 72.598 82.1205 72.2263 82.1905 71.8656C82.2605 71.5049 82.4096 71.1643 82.6272 70.8681C82.8447 70.572 83.1252 70.3279 83.4485 70.1532Z" fill="#1D1D1B"/>
<path d="M49.3977 82.2429C51.2698 83.857 53.5932 84.8561 56.0526 85.1045C58.3527 85.2743 60.6648 85.0416 62.8849 84.4168C63.3507 84.5278 63.3507 85.8587 63.3286 86.2137C60.6931 87.3129 57.7928 87.6137 54.9878 87.0788C52.4698 86.8051 50.1214 85.6778 48.3329 83.8845C48.1333 83.5073 49.1315 82.2429 49.3977 82.2429Z" fill="#1D1D1B"/>
<path d="M82.2283 86.3247C84.5888 87.07 87.1216 87.07 89.4821 86.3247C91.6504 85.5985 93.6767 84.5027 95.4715 83.0859C95.9373 83.0859 96.4697 84.2395 96.5806 84.5722C94.5722 86.6034 92.0112 87.9996 89.2159 88.5873C86.8123 89.2704 84.2485 89.1219 81.9399 88.1658C81.5406 87.9884 81.9621 86.4134 82.2283 86.3247Z" fill="#1D1D1B"/>
<path d="M66.8334 86.7905C66.8334 86.5021 68.4527 86.125 68.5636 86.5687C68.6745 87.0123 68.2531 100.721 72.0463 100.633C75.8396 100.544 74.5752 86.5243 74.9301 86.3025C75.5096 86.1982 76.1031 86.1982 76.6826 86.3025C76.6826 86.3025 78.7899 103.139 72.1351 103.051C65.4802 102.962 66.8555 86.968 66.8334 86.7905Z" fill="#1D1D1B"/>
<path d="M49.9078 107.886C49.8313 106.578 49.9737 105.266 50.3292 104.004C50.8616 102.806 52.5475 101.409 52.8803 101.497C53.213 101.586 53.9894 102.496 53.7232 102.873C53.457 103.25 51.7933 104.182 51.7268 105.291C51.6602 106.4 51.7268 108.33 51.4827 108.419C50.9149 108.411 50.3639 108.224 49.9078 107.886V107.886Z" fill="#1D1D1B"/>
<path d="M87.4414 101.697C87.4414 101.697 88.6171 100.3 88.9942 100.3C89.7447 100.594 90.4282 101.036 91.0038 101.6C91.5793 102.164 92.0351 102.839 92.3438 103.583C93.1868 105.801 93.209 107.909 92.5657 108.02C91.9224 108.13 90.8132 108.308 90.8132 108.02C90.8132 107.731 91.7227 105.247 90.6801 103.783C89.804 102.813 88.6864 102.094 87.4414 101.697Z" fill="#1D1D1B"/>
<path d="M54.8547 106.289C55.2984 106.444 59.7571 109.484 70.1609 109.106C76.0574 108.789 81.8774 107.623 87.4414 105.646C87.7071 106.222 87.8361 106.852 87.8185 107.487C87.8185 107.864 80.3873 111.591 69.806 111.413C59.2247 111.236 54.411 108.685 54.278 108.308C54.1449 107.931 54.5885 106.2 54.8547 106.289Z" fill="#1D1D1B"/>
</svg>
