<?xml version="1.0" encoding="utf-8"?>
<!-- Generator: Adobe Illustrator 21.0.0, SVG Export Plug-In . SVG Version: 6.00 Build 0)  -->
<svg version="1.1" id="Layer_1" xmlns="http://www.w3.org/2000/svg" x="0px" y="0px" viewBox="0 0 512 512" style="enable-background:new 0 0 512 512;" xml:space="preserve">
<style type="text/css">
	.st0{fill:#FFFFFF;}
	.st1{fill:#1D1D1B;}
	.st2{fill:#85BFE9;}
	.st3{fill:#E6E4DA;}
</style>
<path class="st0" d="M262.3,497c-1.8,0-3.6-0.2-5.3-0.6h-1h-1.4h-4.1H246h-1.7c-7.3,0-20.6,0-24.1-11.6c-1-4.3-1.5-8.7-1.6-13.1
	c-10.4-1.5-20.5-4.9-29.8-9.8c-3.9-2.4-7.7-5-11.2-7.8c-10.4,8-22.7,13.3-35.8,15.2c-5.8,0.7-11.6,1.1-17.5,1.1
	c-18,0-23.4-3.9-26.1-7.8c-1.3-1.9-2.2-4-2.5-6.3c-0.3-2.3-0.1-4.6,0.7-6.7c1.4-4.1,6.6-21.6,9.7-34.2c-22,1.1-58.4,2.9-61.9,2.9
	c-4-0.1-7.9-1.2-11.4-3.1c-3.5-1.9-6.4-4.7-8.6-8.1c-1.9-2.7-3-5.9-3.3-9.2c-0.3-3.3,0.2-6.6,1.6-9.6c2.7-5.9,32.1-54.7,45.1-67.9
	l2.9-2.9c-6.9-2.1-14-3.6-21.2-4.5c-7.8-0.9-33.4-4.7-41.1-17c-1.2-1.9-1.9-4-2.2-6.2c-0.2-2.2,0-4.4,0.8-6.5
	c10-18,22.9-34.2,38.2-47.9c7-5.6,13.7-10.9,18.9-15c-11-14-20.4-29.2-28-45.3c-12.4-26.6-17.3-48.9-13.2-59.6
	c0.7-1.9,1.9-3.7,3.3-5.2c1.4-1.5,3.2-2.7,5.1-3.5c4.3-1.3,8.8-1.8,13.3-1.4c7.8,0,20.9,0,33.7,0.7c11.4,0,22.8,0.7,30.8,0.7h16.7
	c-1.2-11.8-3-29.6-4.7-41.2c-0.8-5.7-1.6-10.8-2.3-15.1c-2.7-16.7-4.6-28.7,8.9-31.3c1.2-0.1,2.3-0.1,3.5,0
	c24.1,1.9,47.8,7.4,70.3,16.3c15.8,5.3,30.6,13.2,43.8,23.5c20.6-14.5,42.9-26.4,66.5-35.3c16.2-6.8,33.4-11,50.9-12.4
	c3.5-0.3,7.1,0.3,10.4,1.8c3.2,1.5,6,3.8,8.2,6.6c3,5.2,3,5.2-4.3,43.7c-2.2,11.3-5.3,27.6-7.2,39.1c11.2-1.3,22.2-3.7,32.9-7
	c10.9-3.5,25.4-9.8,37.1-14.9c16.7-7.2,20.8-8.9,25.1-8.9h1.3c2.3,0.2,4.5,1,6.4,2.2c1.9,1.3,3.5,2.9,4.7,4.9
	c6.4,10.8,5,41.7-8.4,72.6l-5.2,11.7l2.7-1.1c5.9-2.9,12.3-4.6,18.9-5c3.7-0.3,7.4,0.7,10.5,2.7c3.1,2,5.5,5,6.8,8.5
	c5,33.2-2.9,67-22,94.5c-7.3,10.1-15.5,19.4-24.5,28l3.7,0.9c7.3,1.6,13.6,2.5,18.7,3.4c13.5,2.2,28.7,4.7,28,20.1
	c-2.8,14.1-8.5,27.5-16.8,39.3c-8.3,11.8-19,21.7-31.3,29.1l-20.2,11.5l-6.5,3.8c1,19.1,0.7,38.2-0.9,57.2
	c-3.1,10.6-16.8,18-33.1,18c-3.7,0-7.4-0.2-11-0.9c-17.4-3.2-34.2-8.9-49.9-17c-1.4-0.9-2.8-2-4.1-3c-9.5,4.9-23.4,12.1-28.7,14.2
	l-4.3,1.5c0,15.1-0.9,16.3-2,18.7c-1.7,2.9-4.3,5.3-7.3,6.9c-3,1.6-6.4,2.3-9.8,2.1c-1.7,0-3.5-0.2-5.2-0.7h-1.4
	c-1.8,0-3.6,0.1-5.4,0.4C266.1,496.5,264.2,496.8,262.3,497L262.3,497z"/>
<path class="st1" d="M83,222.2c-14.2-15.8-26.1-33.7-35.1-52.9c-14.8-31.7-15-49.2-11.7-50.5c3.3-1.3,50.9,0.9,72.6,1
	c21.7,0.2,31.2,0,31.2-1.3c0-1.3-3.2-36-5.9-55.1c-2.7-19.1-5.5-31.3-3.8-31.7c22.8,1.7,45.2,7,66.3,15.6
	c39.1,14.3,46.9,28.2,46.9,28.2c22-16.8,46.3-30.4,72.2-40.4c37.8-13.3,52.8-11.4,54.1-9.2s-17.8,89-14.5,90.1
	c17.5-0.2,34.8-3.1,51.5-8.5c21.3-7,54.7-23.5,58.2-23.5c3.5,0,6.4,27.5-8.3,61.4c-14.7,33.9-18.2,38.5-16.9,39.1
	c10.8-2.7,21.4-6.3,31.7-10.6c11-4.6,16.8-5.3,18.1-1.4c3.5,28.9-3.6,58.2-20.1,82.2c-25,33.3-36,35-37,36.4c-1,1.3,0,8.4,24.1,13.4
	c24.1,5,36.3,4.6,36.1,9.8c-2.7,11.9-7.7,23.1-14.8,33c-7.1,9.9-16.1,18.3-26.5,24.6C419.3,391,417.3,391,418,393.5
	c0.7,2.6,1.1,54.7,0,58.7c-1.1,4-12,10.8-29.1,7.8c-15.6-2.9-30.6-7.9-44.8-14.9c-3.4-2.3-6.6-4.9-9.5-7.8c0,0-28.7,15.2-35.5,17.8
	c-4.1,1.6-8.3,2.7-12.7,3.4c0,0,0,22-0.8,23.5c-0.9,0.8-2,1.3-3.2,1.6c-1.2,0.3-2.4,0.3-3.6,0c-4.1-0.7-8.3-0.7-12.3,0
	c-2.6,0.6-5.2,0.6-7.8,0c-4.1-0.3-8.2-0.3-12.3,0c-3.6,0-12.3,0-13-2.2c-0.6-2.2-1.8-21.1-1.8-21.1c-12.3-0.9-24.3-4.1-35.4-9.5
	c-6.9-3.7-13.1-8.6-18.4-14.5c-10.4,10.2-23.5,17.1-37.8,19.8c-20.7,2.4-31.8,0-31.2-1.7c0.5-1.7,16.5-53.4,12.6-53
	c-3.9,0.4-71.6,3.1-77.2,3.2c-5.5,0.1-11.7-6.4-9.5-11.3c2.2-4.8,31.2-52.8,42.3-63.9c11.1-11.1,17-18,17-18
	c-13.8-5.8-28.3-9.9-43.2-12c-21.4-2.4-32.5-9.5-31.2-12.1c9.2-15.6,20.7-29.7,34.1-41.8C69.1,232.7,83,222.2,83,222.2z"/>
<path class="st2" d="M51.8,131.6c2.3-2.3,105.4,0.5,105.7-1.5c0.3-2-14.6-87.2-11.6-87.2c24.4,7.1,48,16.9,70.3,29
	c20.5,13.1,21.6,18,27,17.7c5.5-0.3,31.2-24.9,65.8-38.1c34.6-13.2,46.2-14,46.2-12.7c0,1.3-11.2,57.1-13.4,67.5
	c-2.2,10.4-3.4,21.4-1.1,22c21.7,0.6,43.5-2,64.4-7.8c30.8-8.7,52.7-20.9,53-18.6c-7.3,24.5-16.7,48.2-28.3,71
	c-9.3,14.4-13.1,26.7-11.2,27.7c2,0.9,13-2.3,34-8.7c21-6.3,23.4-7.3,23.4-6.3c0.4,21.2-5.6,42-17.2,59.7
	c-12.5,17-27.1,32.4-43.4,45.8c1.1,4.3,3.1,8.3,5.7,11.8c2.7,3.5,6,6.4,9.9,8.6c9.1,4.1,44.5,9.4,44.2,11.3
	c-8.3,19.7-22.9,36.2-41.5,46.9c-27.4,14.2-30.7,15.6-31.2,18.1c-0.5,2.4,1.4,56.8-0.9,57.1c-13.2-1.1-26.3-3.5-39.1-7.2
	c-11.1-3.8-15.6-7.4-15.6-8.3c8.8-10.8,16.2-22.6,22.1-35.3c3.1-7.5,5.3-15.4,6.3-23.5c0,0,35.7,1.6,39.1-23.5
	c3.4-25.1-14.8-29.8-19.9-30.6c-3.4-0.8-6.9-1.2-10.4-1.3c0,0,9.1-80.6-18.2-125.1c-27.3-44.5-56.3-68-115.3-65.6
	c-59,2.4-90.5,33.5-105,93.8c-14.5,60.4-10.6,94.8-10.6,94.8s-28.8,1.2-27.9,36.9c0.9,35.7,38.5,28.6,38.5,28.6
	c-0.2,10.8,2.7,21.4,8.5,30.5c9.5,14.5,13.7,20,13.7,20s-38,14.5-38.4,12.4c-0.3-2.2,9.8-35.5,8.4-39.1c-1.3-3.6-7.8-10.6-10.2-10.6
	c-2.3,0-75.8,3.2-76.5,0c-0.7-3.2,16.3-29.3,33.4-50.9c17-21.6,25.4-29.7,25.1-32.7c-0.3-3-11.8-16.5-36.8-20.2
	c-25-3.7-35.1-2.9-34.4-4.2c12.2-15.7,26.3-30,41.8-42.5c7.7-4.2,14.4-10,19.7-17c-13.3-14.9-25-31.2-34.8-48.5
	C51.6,149.8,50.8,132.6,51.8,131.6z"/>
<path class="st1" d="M166.4,97.7c-2.8-11.6-4.9-23.4-6.4-35.3c9.9,2.7,19.4,6.3,28.6,10.8c0,1.3,0,6.8-0.9,6.8
	c-5.5-1.5-11.2-2.7-16.9-3.4c0,0.9,2.7,15.2,2.4,16.2C172.8,93.6,167,98.5,166.4,97.7z"/>
<path class="st1" d="M287.2,78.1c7.8-6.6,16.3-12.2,25.5-16.7c9.4-3.3,7.8-4.9,9.4-3.3c1.6,1.6,3.6,6.8,2.7,7.8
	c-8.1,2.8-15.9,6.2-23.4,10.2c-7.4,4.9-7.8,7.8-9.7,7.2C289.7,82.7,288.1,79.4,287.2,78.1z"/>
<path class="st3" d="M134.7,327.6c3,12.4,4.8,25.1,5.5,37.9c-0.9,0-18.5-2.1-18.6-14.8c0.2-4.6,1.5-9.1,3.8-13.1
	C127.7,333.6,130.9,330.2,134.7,327.6z"/>
<path class="st3" d="M384.7,328c1-1,18.5,0,15.6,15.2c-2.9,15.2-21.8,20.3-22.2,18.3c1.4-6.2,3.1-12.2,5.1-18.2
	C385.4,334.1,382.8,329.9,384.7,328z"/>
<path class="st3" d="M249.7,138.5c31.2,0,69.1,1.7,98.7,53.4c29.5,51.7,26.3,92.6,18.3,138.8c-8,46.2-20.9,73.9-28.8,82.6
	c-3.1,3.6-6.4,7-10,10.2c-6-4.8-12.4-8.9-19.2-12.5c-1.6,0.6-3.9,3-3.2,4.2c0.7,1.3,15.6,11.9,15,12.9c-0.6,1-9.1,6.9-10,5.9
	c-6.1-5.3-12.5-10.2-19.2-14.8c-1.3,0-5.2,3-4.5,4.2c0.6,1.3,18.6,12.8,16.6,14.2c-2,1.3-12.3,5.9-13.6,5
	c-1.3-0.9-15.1-15.2-16.3-15.1c-1.2,0.1-4.8,2-3.8,3.6c1,1.6,11.2,13.8,11.2,13.8c-21.1,2.5-42.5,2.3-63.6-0.8
	c-28.9-5.3-49.3-37.3-58.6-71.3c-9.3-34-9.3-106.4,0.8-146.4C169.4,186.5,187.1,138.9,249.7,138.5z"/>
<path class="st3" d="M242.1,460.1c0.9-0.9,9.8,0.5,18.5,0c8.7-0.5,13-0.4,13,0.5c0,0.9,1.1,14.3,0,14.6c-3.9,1.2-8.1,1.3-12,0.4
	c-3.6-1.8-7.7-2.7-11.7-2.5c-3.2,0.7-5.2,3-6.2,1.6C242.4,470.1,241.9,465.1,242.1,460.1L242.1,460.1z"/>
<path class="st1" d="M185.2,186.1c2.6-0.9,23.4-13.5,73.5-13.2c50.1,0.3,78.6,13.7,79.3,17.6c0.7,3.9,0,19.2-2.7,19.2
	c-2.7,0-18.3-10.9-75.7-10.3c-57.4,0.6-73.9,14.3-77.1,12.1C179.2,209.2,175.8,189.4,185.2,186.1z"/>
<path class="st2" d="M188.5,191.5c2-4.1,25.5-13.2,72.9-10.9c47.3,2.3,69.5,10.2,69.5,12.7c0,2.6,1.6,6.8,0,6.8
	c-23.3-6.7-47.5-9.6-71.7-8.6c-23.4,0.9-46.6,4.2-69.3,9.9C187.2,200.6,187.8,192.5,188.5,191.5z"/>
<path class="st1" d="M280.5,222.7c21.8-8.9,62.5-2.4,61,42.1c-1.5,44.5-55.7,50.7-74,25.9C249.1,265.8,257.8,231.9,280.5,222.7z"/>
<path class="st0" d="M283.9,229.7c17.9-7.3,51.1-2,50.1,34.6c-1,36.6-45.8,41.6-60.8,21C258.1,264.7,265.3,237.3,283.9,229.7z"/>
<path class="st1" d="M191.4,221.6c20.1-8.2,57.3-2.3,56.2,39.1c-1.2,41.4-51.3,46.9-68.3,23.8C162.4,261.4,170.6,230.1,191.4,221.6z
	"/>
<path class="st0" d="M194.6,228.1c16.5-6.7,46.9-1.9,46.2,31.8c-0.7,33.7-42.2,38.4-56.1,19.6C170.8,260.7,177.8,235.1,194.6,228.1z
	"/>
<path class="st1" d="M205.3,252.8c1.4-0.7,2.9-0.9,4.5-0.7c1.5,0.2,3,0.8,4.2,1.7c1.2,0.9,2.1,2.2,2.7,3.7c0.5,1.4,0.7,3,0.4,4.5
	c-0.3,1.5-1,2.9-2,4.1c-1,1.1-2.4,2-3.9,2.4c-1.5,0.4-3.1,0.4-4.5,0c-1.5-0.4-2.8-1.2-3.9-2.4c-0.8-1-1.4-2.2-1.7-3.4
	c-0.3-1.3-0.4-2.6-0.1-3.8c0.2-1.3,0.8-2.5,1.5-3.5C203.1,254.3,204.1,253.4,205.3,252.8z"/>
<path class="st1" d="M297.1,256.3c1.4-0.7,2.9-0.9,4.5-0.7c1.5,0.2,3,0.8,4.2,1.7c1.2,0.9,2.1,2.2,2.7,3.7c0.5,1.4,0.7,3,0.4,4.5
	c-0.3,1.5-1,2.9-2,4.1c-1,1.1-2.4,2-3.9,2.4c-1.5,0.4-3.1,0.4-4.5,0c-1.5-0.4-2.8-1.2-3.9-2.4c-0.8-1-1.4-2.2-1.7-3.4
	c-0.3-1.3-0.4-2.6-0.1-3.8c0.2-1.3,0.8-2.5,1.5-3.5C295,257.7,296,256.9,297.1,256.3z"/>
<path class="st1" d="M177.2,298.9c6.6,5.7,14.8,9.2,23.4,10.1c8.1,0.6,16.2-0.2,24.1-2.4c1.6,0.4,1.6,5.1,1.6,6.3
	c-9.3,3.9-19.5,4.9-29.4,3c-8.9-1-17.1-4.9-23.4-11.3C172.8,303.3,176.3,298.9,177.2,298.9z"/>
<path class="st1" d="M292.8,313.3c8.3,2.6,17.2,2.6,25.5,0c7.6-2.6,14.8-6.4,21.1-11.4c1.6,0,3.5,4.1,3.9,5.2
	c-7.1,7.2-16.1,12.1-25.9,14.1c-8.5,2.4-17.5,1.9-25.6-1.5C290.4,319.1,291.9,313.6,292.8,313.3z"/>
<path class="st1" d="M238.6,314.9c0-1,5.7-2.3,6.1-0.8c0.4,1.6-1.1,49.9,12.3,49.6c13.4-0.3,8.9-49.7,10.2-50.5c2-0.4,4.1-0.4,6.2,0
	c0,0,7.4,59.3-16,59C233.8,371.9,238.7,315.5,238.6,314.9z"/>
<path class="st1" d="M179,389.2c-0.3-4.6,0.2-9.2,1.5-13.7c1.9-4.2,7.8-9.1,9-8.8c1.2,0.3,3.9,3.5,3,4.8s-6.8,4.6-7,8.5
	c-0.2,3.9,0,10.7-0.9,11C182.6,391.1,180.6,390.4,179,389.2L179,389.2z"/>
<path class="st1" d="M311.2,367.4c0,0,4.1-4.9,5.5-4.9c2.6,1,5,2.6,7.1,4.6c2,2,3.6,4.4,4.7,7c3,7.8,3,15.2,0.8,15.6
	c-2.3,0.4-6.2,1-6.2,0c0-1,3.2-9.8-0.5-14.9C319.5,371.4,315.6,368.8,311.2,367.4z"/>
<path class="st1" d="M196.4,383.6c1.6,0.5,17.3,11.3,53.9,9.9c20.8-1.1,41.3-5.2,60.8-12.2c0.9,2,1.4,4.3,1.3,6.5
	c0,1.3-26.2,14.5-63.4,13.8c-37.3-0.6-54.2-9.6-54.7-10.9C193.9,389.4,195.5,383.3,196.4,383.6z"/>
</svg>
